<svg width="19" height="18" viewBox="0 0 19 18" fill="none" xmlns="http://www.w3.org/2000/svg">
<path d="M16.0085 7.54545C16.0085 12.6364 9.00477 17 9.00477 17C9.00477 17 2.00107 12.6364 2.00107 7.54545C2.00107 5.80949 2.73896 4.14463 4.0524 2.91712C5.36585 1.68961 7.14727 1 9.00477 1C10.8623 1 12.6437 1.68961 13.9571 2.91712C15.2706 4.14463 16.0085 5.80949 16.0085 7.54545Z" stroke="#ADB7C2" stroke-width="2" stroke-linecap="round" stroke-linejoin="round"/>
<path d="M9.00476 9.75C10.2481 9.75 11.256 8.74264 11.256 7.5C11.256 6.25736 10.2481 5.25 9.00476 5.25C7.76146 5.25 6.75357 6.25736 6.75357 7.5C6.75357 8.74264 7.76146 9.75 9.00476 9.75Z" stroke="#ADB7C2" stroke-width="2" stroke-linecap="round" stroke-linejoin="round"/>
</svg>
