<svg width="146" height="24" viewBox="0 0 146 24" fill="none" xmlns="http://www.w3.org/2000/svg">
<path d="M141.832 2.14469C141.832 1.49851 142.446 1.23427 143.441 1.23427C144.419 1.23427 145.051 1.4755 145.051 2.14469C145.051 2.97559 144.057 3.07077 143.434 3.07077C142.441 3.07077 141.832 2.80616 141.832 2.14469ZM146 2.14469C146 0.879131 145.043 0 143.434 0C142.273 0 140.883 0.585476 140.883 2.14469C140.883 3.63688 142.115 4.30543 143.434 4.30543C144.772 4.30543 146 3.63669 146 2.14469ZM141.84 8.08574V7.18515C141.84 6.62792 142.187 6.42499 142.468 6.42499C142.78 6.42499 143.108 6.63901 143.108 7.18515V8.08574H141.84ZM143.964 8.08574V7.22653L145.928 6.45445V5.14664L143.732 6.07981C143.536 5.53626 143.014 5.20528 142.449 5.20528C141.531 5.20528 140.956 5.81313 140.956 7.02496V9.26112H145.928V8.08574H143.964ZM142.805 10.3819C141.608 10.5141 140.883 11.1599 140.883 12.4249C140.883 13.9382 142.064 14.6873 143.441 14.6873C144.797 14.6873 146 13.9601 146 12.4615C146 11.3003 145.327 10.5069 144.188 10.3819L144.116 11.5278C144.595 11.5943 145.051 11.8512 145.051 12.4027C145.051 13.2921 144.173 13.3727 143.492 13.3727C142.89 13.3727 141.819 13.2921 141.819 12.4615C141.819 11.8146 142.331 11.6234 142.883 11.6169L142.805 10.3819ZM145.928 15.8202H140.956V16.9956H145.928V15.8202ZM145.928 20.8908V21.699L141.877 22.9136V22.9413H145.928V23.9326H140.956V22.089L143.935 21.2067L140.956 20.2812V18.4372H145.928V19.6125H141.877V19.6416L145.928 20.8908ZM43.5329 23.9326H24.7145C23.2577 18.451 20.171 6.87792 20.171 6.87792C20.171 6.87792 20.1174 6.87792 20.1167 6.87792V23.9326H12.4242V0.366324H25.7798C27.1859 5.80121 30.1311 16.9841 30.1311 16.9841H30.1856V0.366324H37.8959V3.94681C36.0167 5.9582 34.8761 8.52971 34.8761 11.7561C34.8761 16.3872 37.4425 22.1328 43.5329 23.9326ZM134.97 0.366324V23.9326H126.909V5.4751H126.795L122.163 23.9326H114.721L110.109 5.4751H109.984V23.9326H95.8883L94.4829 18.8563H86.9074L85.5029 23.9326H72.0327C72.0327 23.9326 71.5768 20.4593 71.4585 19.5915C71.0594 16.6718 70.1904 15.9644 68.4704 15.9644C67.4245 15.9644 66.1181 15.9644 66.1181 15.9644V23.9326H52.3201C56.2951 23.0167 59.8847 21.1863 61.9423 19.9264L59.0453 8.78742L51.3402 10.8464L52.9833 17.1639C52.5001 17.5107 50.8963 18.0819 49.7976 18.0819C46.1193 18.0819 44.3692 14.3443 44.3692 11.1244C44.3692 5.9419 49.5796 3.94715 54.1728 3.94715C55.2408 3.94715 56.6205 4.04146 56.8132 4.0634L55.8519 0.366324C62.6431 0.366324 70.3498 0.366324 71.9101 0.366324C78.3373 0.366324 80.8282 3.45502 80.8282 6.73995C80.8282 11.7167 76.1468 12.6527 75.254 12.8114C75.2395 12.8137 75.2402 12.9503 75.254 12.9529C77.1246 13.3135 78.5001 14.2311 79.3755 15.8313C79.3459 15.7774 84.2933 1.66212 84.7428 0.366324H97.0873L102.294 15.1465H102.365V0.366324H115.64C115.64 0.366324 118.715 13.2698 118.733 13.2706C119.736 8.97404 121.747 0.366324 121.747 0.366324H134.97ZM0 0.366324H8.94442C8.94442 0.366324 8.93083 16.0267 8.93083 23.9326C8.8763 23.9326 0.0555629 23.9367 9.04538e-07 23.9326L0 0.366324ZM90.6241 5.42709L88.1251 13.1972H93.2787L90.7553 5.42709H90.6241ZM66.1181 10.6522C66.1181 10.6522 67.8953 10.6522 68.777 10.6522C70.9509 10.6522 71.8565 9.51507 71.8565 8.11985C71.8565 6.3394 70.3595 5.63985 68.777 5.63985C67.8374 5.63985 66.1181 5.64049 66.1181 5.64049V10.6522Z" fill="#CDD3D9"/>
</svg>
