<svg width="65" height="65" viewBox="0 0 65 65" fill="none" xmlns="http://www.w3.org/2000/svg">
<path d="M56.2422 47.64V43.9894C56.2422 36.4144 52.0081 29.8097 45.7824 26.4175C47.9933 24.0701 49.3527 20.9118 49.3527 17.4401C49.3527 10.213 43.473 4.33337 36.246 4.33337C29.019 4.33337 23.1393 10.213 23.1393 17.4401C23.1393 20.9118 24.4987 24.0701 26.7098 26.4175C20.4841 29.8097 16.25 36.4144 16.25 43.9894V47.64C16.25 49.4496 17.7171 50.9167 19.5267 50.9167H52.9656C54.7752 50.9167 56.2422 49.4496 56.2422 47.64ZM29.6927 17.4401C29.6927 13.8265 32.6325 10.8867 36.246 10.8867C39.8595 10.8867 42.7994 13.8265 42.7994 17.4401C42.7994 21.0536 39.8595 23.9934 36.246 23.9934C32.6325 23.9934 29.6927 21.0536 29.6927 17.4401ZM49.6889 44.3634H22.8032C22.8032 36.0933 29.1883 30.5467 36.246 30.5467C43.2657 30.5467 49.6889 36.0494 49.6889 44.3634Z" fill="#04102A"/>
</svg>
