<svg width="65" height="65" viewBox="0 0 65 65" fill="none" xmlns="http://www.w3.org/2000/svg">
<g clip-path="url(#clip0_1_277)">
<path d="M64.9236 4.85251C64.7828 2.27054 62.7294 0.217325 60.1474 0.0764071C54.9375 -0.208222 44.7426 0.0686632 34.9942 5.11086C30.0246 7.68141 24.7687 12.0396 20.5743 17.0679C20.5226 17.1299 20.4724 17.1922 20.4211 17.2543L10.9021 17.9896C9.33528 18.1107 7.93969 18.932 7.0731 20.2427L0.578944 30.0653C-0.0782923 31.0593 -0.182775 32.3033 0.299266 33.393C0.781434 34.4827 1.77218 35.2422 2.94967 35.4246L10.9694 36.6667C10.9411 36.8226 10.9127 36.9784 10.8867 37.1343C10.6197 38.7314 11.1488 40.3734 12.3023 41.5267L23.4732 52.6977C24.4295 53.6541 25.7218 54.1813 27.0459 54.1813C27.3186 54.1813 27.5928 54.1588 27.8657 54.1133C28.0216 54.0872 28.1774 54.0588 28.3333 54.0305L29.5754 62.0504C29.7579 63.2279 30.5173 64.2187 31.6068 64.7008C32.0601 64.9014 32.5399 65.0004 33.0175 65.0004C33.6882 65.0003 34.3542 64.805 34.9346 64.4212L44.7572 57.9269C46.068 57.0602 46.8892 55.6646 47.01 54.0979L47.7453 44.5791C47.8074 44.5278 47.8699 44.4775 47.9318 44.4258C52.9603 40.2314 57.3186 34.9756 59.889 30.0059C64.9315 20.257 65.2079 10.062 64.9236 4.85251ZM42.6568 54.7498L33.2609 60.962L32.0502 53.1461C36.0213 51.9785 39.9497 50.1085 43.6921 47.6034L43.2131 53.8044C43.1833 54.1912 42.9804 54.5359 42.6568 54.7498ZM26.1662 50.0047L14.9952 38.8337C14.7102 38.5485 14.5784 38.148 14.6431 37.7622C14.9752 35.7763 15.4912 33.8858 16.1301 32.1049L32.8914 48.8663C30.7525 49.6324 28.8367 50.0895 27.2377 50.3568C26.8513 50.4211 26.4512 50.2897 26.1662 50.0047ZM11.1955 21.7869L17.3964 21.3079C14.8911 25.0504 13.0211 28.9787 11.8535 32.9498L4.03778 31.7393L10.2501 22.3432C10.4641 22.0195 10.8088 21.8168 11.1955 21.7869ZM45.4926 41.501C42.4161 44.0671 39.4298 45.9231 36.6772 47.2662L17.7331 28.3221C19.4924 24.7288 21.6396 21.7366 23.4989 19.5076C27.3805 14.8541 32.2082 10.8398 36.7441 8.49366C45.691 3.86583 55.1174 3.61662 59.9401 3.87916C60.5784 3.91395 61.0861 4.42163 61.1209 5.06008C61.3838 9.88278 61.1341 19.309 56.5062 28.2561C54.1603 32.7919 50.1459 37.6194 45.4926 41.501Z" fill="#04102A"/>
<path d="M44.5251 29.9918C46.9629 29.9915 49.4017 29.0635 51.2576 27.2076C53.056 25.4093 54.0462 23.0182 54.0462 20.4751C54.0462 17.932 53.0559 15.5409 51.2576 13.7427C47.5452 10.0302 41.5048 10.0304 37.7927 13.7427C35.9943 15.5409 35.0039 17.932 35.0039 20.4751C35.0039 23.0182 35.9944 25.4093 37.7927 27.2076C39.649 29.0639 42.0865 29.992 44.5251 29.9918ZM40.4855 16.4356C41.5991 15.3218 43.062 14.765 44.5249 14.765C45.9879 14.765 47.4508 15.3218 48.5644 16.4356C49.6434 17.5146 50.2375 18.9491 50.2375 20.475C50.2375 22.0008 49.6434 23.4355 48.5644 24.5145C46.3371 26.7419 42.7128 26.7418 40.4854 24.5145C39.4064 23.4355 38.8121 22.001 38.8121 20.4751C38.8121 18.9493 39.4065 17.5146 40.4855 16.4356Z" fill="#04102A"/>
<path d="M1.94252 53.5663C2.4299 53.5663 2.91727 53.3804 3.28899 53.0085L9.50626 46.7912C10.25 46.0475 10.25 44.8418 9.50626 44.0981C8.7627 43.3544 7.5569 43.3544 6.81321 44.0981L0.596058 50.3154C-0.147634 51.0591 -0.147634 52.2648 0.596058 53.0085C0.967777 53.3803 1.45515 53.5663 1.94252 53.5663Z" fill="#04102A"/>
<path d="M15.204 49.796C14.4605 49.0523 13.2547 49.0523 12.511 49.796L0.557831 61.7493C-0.185861 62.493 -0.185861 63.6987 0.557831 64.4424C0.929676 64.8142 1.41692 65.0001 1.9043 65.0001C2.39167 65.0001 2.87904 64.8142 3.25076 64.4422L15.2039 52.4891C15.9477 51.7454 15.9477 50.5397 15.204 49.796Z" fill="#04102A"/>
<path d="M18.2088 55.4937L11.9915 61.7109C11.2478 62.4546 11.2478 63.6603 11.9915 64.404C12.3633 64.7759 12.8507 64.9618 13.3379 64.9618C13.8252 64.9618 14.3127 64.776 14.6844 64.404L20.9017 58.1867C21.6454 57.443 21.6454 56.2374 20.9017 55.4937C20.1581 54.75 18.9523 54.75 18.2088 55.4937Z" fill="#04102A"/>
</g>
<defs>
<clipPath id="clip0_1_277">
<rect width="64.0333" height="64.0333" fill="white" transform="scale(1.0151)"/>
</clipPath>
</defs>
</svg>
