<svg width="137" height="39" viewBox="0 0 137 39" fill="none" xmlns="http://www.w3.org/2000/svg">
<path d="M97.1291 16.8807C97.1291 17.2578 97.1095 17.6913 97.0704 18.1532C97.0508 18.4171 97.0117 18.6904 96.9726 18.9826C96.9139 19.3973 96.5521 19.7083 96.1218 19.7083H80.1911C79.7119 19.7083 79.3305 20.0854 79.3305 20.5378C79.3305 20.632 79.3501 20.7168 79.3794 20.8017C79.7511 21.8573 80.2987 22.6867 81.0419 23.3088C82.0199 24.1288 83.301 24.5341 84.8657 24.5341C85.9219 24.553 86.9585 24.3267 87.8973 23.8743C88.7383 23.4596 89.4913 22.8752 90.0977 22.1778C90.2639 21.9893 90.5084 21.8856 90.7627 21.895H94.7624C95.2319 21.895 95.623 22.2626 95.623 22.7244C95.623 22.8564 95.5937 22.9883 95.5252 23.1015C94.5571 24.8923 93.2564 26.3155 91.6232 27.3617C89.6478 28.6341 87.3203 29.2656 84.631 29.2656C81.4722 29.2656 78.8709 28.2854 76.8368 26.3155C74.8027 24.355 73.7856 21.8479 73.7856 18.7941C73.7758 17.0033 74.167 15.2313 74.9298 13.6007C75.6926 11.9702 76.7977 10.5092 78.1766 9.31221C79.2425 8.38853 80.4845 7.66278 81.8341 7.18209C83.2325 6.69198 84.719 6.44692 86.2055 6.45634C89.4131 6.45634 92.0242 7.42715 94.0583 9.36877C96.112 11.3104 97.1291 13.8175 97.1291 16.8807ZM90.6258 15.4669C91.0952 15.4669 91.4863 15.0994 91.4863 14.6375C91.4863 14.515 91.457 14.3925 91.4081 14.2794C91.0169 13.4971 90.4399 12.809 89.7163 12.2906C88.6699 11.5366 87.3692 11.1596 85.8338 11.1596C84.4843 11.1407 83.1738 11.5366 82.0786 12.3C81.3353 12.809 80.7192 13.4688 80.2498 14.2228C80.0151 14.6187 80.152 15.1182 80.5627 15.3538C80.6899 15.4292 80.8464 15.4669 80.993 15.4669H90.6258ZM55.1558 8.00209L50.9898 28.0497C49.7283 34.1102 44.2029 38.4741 37.7876 38.4741H25.6416C25.2406 38.4741 24.8886 38.2008 24.8006 37.8144L24.0671 34.4495C23.9693 34.0065 24.2627 33.5636 24.7321 33.4693C24.7908 33.4599 24.8495 33.4505 24.9081 33.4505L38.2766 33.4316C40.9659 33.4222 43.4499 32.0555 44.8092 29.8217C45.22 29.1525 44.4963 28.3419 43.7433 28.6435C43.6553 28.6812 43.5575 28.7189 43.4695 28.7472C42.4426 29.096 41.3669 29.275 40.2814 29.2562C37.1715 29.2562 34.6484 28.276 32.7121 26.3061C30.7758 24.3456 29.8076 21.7725 29.8076 18.5867C29.7978 17.286 30.013 15.9853 30.4335 14.7412C30.8736 13.4688 31.5092 12.2812 32.3209 11.1973C33.3967 9.72693 34.8342 8.53934 36.5065 7.72876C38.1592 6.92761 39.9782 6.53174 41.9537 6.52232C43.3814 6.51289 44.7995 6.78623 46.1001 7.35175C46.9118 7.70991 47.6746 8.17175 48.3494 8.73727C48.7112 9.03888 49.2491 9.00118 49.562 8.65244C49.6598 8.53934 49.7283 8.40738 49.7576 8.266L49.875 7.67221C49.9532 7.28577 50.3053 7.00301 50.716 7.00301H54.3148C54.7842 7.00301 55.1754 7.3706 55.1754 7.83244C55.1754 7.89842 55.1656 7.95497 55.1558 8.00209ZM47.9778 16.9844C47.9778 15.2596 47.4301 13.8552 46.3348 12.743C45.2395 11.6403 43.8509 11.0842 42.1786 11.0842C40.2325 11.0842 38.5504 11.8099 37.1324 13.2614C35.7144 14.7129 35.0103 16.466 35.0103 18.5113C35.0103 20.3116 35.5481 21.7631 36.6336 22.8658C37.7192 23.9686 39.147 24.5247 40.917 24.5247C42.8925 24.5247 44.5647 23.7989 45.9339 22.3474C47.2932 20.9054 47.9778 19.1145 47.9778 16.9844ZM58.5884 7.68163L54.5691 27.7104C54.4811 28.1628 54.7842 28.5964 55.2439 28.6812C55.2928 28.6907 55.3514 28.7001 55.4101 28.7001H58.8525C59.2632 28.7001 59.6152 28.4173 59.6935 28.0309L63.7128 8.01152C63.8008 7.5591 63.4977 7.12554 63.038 7.04071C62.9891 7.03129 62.9305 7.02186 62.8718 7.02186H59.4294C59.0187 7.01244 58.6667 7.2952 58.5884 7.68163ZM75.9371 0H69.913C69.5022 0 69.1502 0.28276 69.0719 0.669198L63.615 27.7104C63.527 28.1628 63.8302 28.5964 64.2898 28.6812C64.3485 28.6907 64.3974 28.7001 64.4561 28.7001H67.9375C68.3483 28.7001 68.7003 28.4173 68.7786 28.0309L73.2771 5.71174C73.3553 5.3253 73.7074 5.04254 74.1181 5.04254H75.233C75.6437 5.04254 75.9958 4.75979 76.074 4.37335L76.7683 0.989658C76.8563 0.537243 76.563 0.103678 76.0936 0.0188506C76.0447 0.0094253 75.9958 0 75.9371 0ZM27.7148 28.6907H23.5195C23.1185 28.6907 22.7665 28.4173 22.6784 28.0403L21.6223 23.2994C21.5343 22.9224 21.192 22.649 20.7812 22.649H9.75985C9.44691 22.649 9.1633 22.8093 9.00683 23.0732L6.02411 28.2665C5.86764 28.5304 5.58404 28.7001 5.2711 28.7001H0.860588C0.381397 28.7001 0 28.3231 0 27.8707C0 27.7293 0.0391177 27.5879 0.107573 27.4654L2.30794 23.6575L15.8426 0.424139C15.9991 0.16023 16.2827 0 16.5956 0H21.6418C22.0428 0 22.3948 0.273334 22.4829 0.650347L28.5754 27.6916C28.6732 28.1346 28.3798 28.5776 27.9202 28.6718C27.842 28.6812 27.7735 28.6907 27.7148 28.6907ZM20.1358 16.3058L18.5711 9.23681C18.4733 8.79382 18.0137 8.50164 17.554 8.59589C17.3095 8.64302 17.1042 8.79382 16.977 9.0106L12.9773 16.0796C12.7523 16.4849 12.899 16.9844 13.3195 17.2012C13.4467 17.2672 13.5836 17.3049 13.7303 17.3049H19.2948C19.7642 17.3049 20.1554 16.9373 20.1554 16.4755C20.1554 16.4189 20.1456 16.3624 20.1358 16.3058Z" fill="white"/>
<path d="M65.6686 1.90386C65.5219 1.38546 65.2187 0.933047 64.7786 0.593736C64.3288 0.254424 63.7714 0.065918 63.2041 0.065918H43.5769C43.2933 0.065918 43.0586 0.292126 43.0586 0.56546C43.0586 0.838794 43.2933 1.065 43.5769 1.065H57.5223C57.7961 1.065 58.0113 1.27236 58.0113 1.53627C58.0113 1.80018 57.7961 2.00753 57.5223 2.00753H37.6995C37.4159 2.00753 37.1812 2.23374 37.1812 2.50708V2.5542C37.1812 2.82754 37.4159 3.05374 37.6995 3.05374H54.2267C54.5005 3.05374 54.7156 3.2611 54.7156 3.52501C54.7156 3.78892 54.5005 3.99628 54.2267 3.99628H40.3399C40.0563 3.99628 39.8216 4.22248 39.8216 4.49582C39.8216 4.76915 40.0563 4.99536 40.3399 4.99536H63.2041C64.4266 4.99536 65.473 4.16593 65.7077 3.00662C65.7859 2.63903 65.7664 2.26202 65.6686 1.90386Z" fill="white"/>
<path d="M56.7403 34.063L56.134 37.0697H55.5374L56.0069 34.6379L54.7551 37.0697H54.0803L53.7967 34.6379L53.3077 37.0697H52.7014L53.3077 34.063H54.2563L54.5302 36.3439L55.7526 34.063H56.7403Z" fill="white"/>
<path d="M57.2585 37.0697L59.0091 34.063H59.6643L60.3391 37.0697H59.7132L59.5763 36.4382H58.2952L57.9333 37.0697H57.2585ZM59.4589 35.8727L59.2242 34.7982L58.6179 35.8727H59.4589Z" fill="white"/>
<path d="M61.3069 37.0697L61.9132 34.063H62.7053L63.429 36.391L63.8984 34.063H64.4754L63.8691 37.0697H63.077L62.3631 34.7228L61.8741 37.0697H61.3069Z" fill="white"/>
<path d="M65.0134 37.0697L66.7639 34.063H67.4192L68.0939 37.0697H67.4681L67.3311 36.4382H66.0403L65.6784 37.0697H65.0134ZM67.204 35.8727L66.9693 34.7982L66.363 35.8727H67.204Z" fill="white"/>
<path d="M72.4166 35.4958C72.3775 35.9953 72.1917 36.3912 71.8787 36.6833C71.5462 36.985 71.1062 37.1452 70.6563 37.1263C70.226 37.1263 69.8837 37.0038 69.6197 36.7493C69.3654 36.5043 69.2285 36.165 69.2285 35.7502C69.2285 35.5523 69.2579 35.3638 69.3068 35.1753C69.3557 35.0056 69.4339 34.836 69.5415 34.6852C69.6979 34.4684 69.9033 34.2893 70.1576 34.1668C70.4118 34.0443 70.6857 33.9783 70.9693 33.9877C71.292 33.9783 71.6147 34.0631 71.8787 34.2422C72.1232 34.4118 72.2895 34.6663 72.3579 34.9585H71.6831C71.6245 34.8266 71.5267 34.7229 71.3995 34.6569C71.2529 34.5815 71.0964 34.5438 70.9301 34.5532C70.6368 34.5438 70.3434 34.6663 70.1478 34.8737C69.9424 35.0999 69.8251 35.4015 69.8446 35.7125C69.8348 35.9387 69.9131 36.165 70.0793 36.3346C70.2456 36.4948 70.4705 36.5797 70.7052 36.5608C71.1062 36.5608 71.468 36.3535 71.6538 36.0047H70.3923L70.4998 35.4863L72.4166 35.4958Z" fill="white"/>
<path d="M73.4436 37.0697L74.0499 34.063H75.7907L75.6929 34.572H74.5682L74.4215 35.2883H75.5462L75.4386 35.7972H74.314L74.1575 36.5607H75.2821L75.1746 37.0697H73.4436Z" fill="white"/>
<path d="M78.0298 35.9858L77.0421 37.0697H76.2988L77.7266 35.4956L76.954 34.063H77.5995L78.1667 35.1092L79.1055 34.063H79.8096L78.4699 35.5805L79.2815 37.0602H78.6165L78.0298 35.9858Z" fill="white"/>
<path d="M83.0271 37.0697L83.5454 34.572H82.8901L82.9879 34.063H84.846L84.7482 34.572H84.1517L83.6334 37.0697H83.0271Z" fill="white"/>
<path d="M85.5308 37.0697L86.1371 34.063H87.8778L87.78 34.572H86.6554L86.5087 35.2883H87.6333L87.5258 35.7972H86.4011L86.2447 36.5607H87.3693L87.2617 37.0697H85.5308Z" fill="white"/>
<path d="M91.9169 36.1179C91.7898 36.4195 91.5747 36.6834 91.2911 36.8625C91.0075 37.0416 90.6652 37.1358 90.3229 37.1264C90.1469 37.1264 89.9708 37.1075 89.8046 37.051C89.4428 36.9379 89.1396 36.6834 88.9733 36.3441C88.8755 36.1461 88.8364 35.9388 88.8364 35.722C88.8364 35.4958 88.8853 35.2696 88.9733 35.0622C89.0614 34.8455 89.1983 34.6569 89.3645 34.4967C89.521 34.3365 89.7166 34.214 89.9219 34.1291C90.1371 34.0443 90.3718 33.9972 90.6065 33.9972C90.939 33.9877 91.2715 34.0914 91.5355 34.2799C91.7996 34.4684 91.9756 34.7418 92.0539 35.0434H91.3791C91.3106 34.8926 91.1933 34.77 91.0564 34.6758C90.8999 34.591 90.7239 34.5438 90.5478 34.5533C90.4109 34.5533 90.274 34.5815 90.1469 34.6287C90.0197 34.6852 89.9024 34.7606 89.8046 34.8643C89.697 34.968 89.609 35.0905 89.5503 35.2319C89.4917 35.3733 89.4623 35.5146 89.4623 35.6655C89.4525 35.9011 89.5405 36.1367 89.7166 36.3158C89.8828 36.4855 90.1175 36.5703 90.362 36.5609C90.5283 36.5609 90.7043 36.5232 90.851 36.4478C91.0075 36.3629 91.1444 36.2498 91.2519 36.1084L91.9169 36.1179Z" fill="white"/>
<path d="M93.012 37.0697L93.6183 34.063H94.2246L93.9801 35.26H94.9678L95.2123 34.063H95.8284L95.2221 37.0697H94.606L94.87 35.7784H93.8823L93.6183 37.0697H93.012Z" fill="white"/>
<path d="M96.708 37.0697L97.3143 34.063H98.1065L98.8301 36.391L99.2996 34.063H99.8765L99.2702 37.0697H98.4781L97.7642 34.7228L97.2752 37.0697H96.708Z" fill="white"/>
<path d="M100.903 35.7597C100.903 35.5146 100.942 35.2601 101.04 35.0339C101.128 34.8171 101.255 34.6286 101.431 34.4684C101.588 34.3176 101.783 34.2045 101.989 34.1197C102.204 34.0443 102.439 33.9971 102.664 34.0066C103.094 34.0066 103.446 34.1291 103.7 34.3836C103.954 34.6286 104.091 34.9679 104.091 35.3921C104.091 35.6371 104.052 35.8822 103.954 36.1178C103.866 36.3346 103.739 36.5231 103.563 36.6834C103.407 36.8342 103.211 36.9473 103.006 37.0321C102.791 37.1075 102.556 37.1546 102.321 37.1452C101.891 37.1452 101.549 37.0227 101.285 36.7682C101.03 36.4854 100.894 36.1273 100.903 35.7597ZM101.529 35.722C101.519 35.9482 101.607 36.1744 101.764 36.344C101.93 36.5043 102.155 36.5891 102.38 36.5797C102.683 36.5891 102.967 36.476 103.172 36.2592C103.378 36.033 103.485 35.7314 103.475 35.4204C103.485 35.1942 103.407 34.968 103.241 34.7983C103.074 34.6381 102.849 34.5532 102.615 34.5721C102.321 34.5627 102.028 34.6852 101.832 34.8925C101.627 35.1093 101.51 35.4109 101.529 35.722Z" fill="white"/>
<path d="M105.227 37.0697L105.833 34.063H106.439L105.931 36.5513H106.958L106.85 37.0697H105.227Z" fill="white"/>
<path d="M108.072 35.7597C108.072 35.5146 108.111 35.2601 108.209 35.0339C108.297 34.8171 108.424 34.6286 108.6 34.4684C108.757 34.3176 108.952 34.2045 109.158 34.1197C109.373 34.0443 109.607 33.9971 109.832 34.0066C110.263 34.0066 110.615 34.1291 110.869 34.3836C111.123 34.6286 111.26 34.9679 111.26 35.3921C111.26 35.6371 111.221 35.8822 111.123 36.1178C111.035 36.3346 110.908 36.5231 110.732 36.6834C110.576 36.8342 110.38 36.9473 110.175 37.0321C109.959 37.1075 109.725 37.1546 109.49 37.1452C109.06 37.1452 108.717 37.0227 108.453 36.7682C108.199 36.4854 108.052 36.1273 108.072 35.7597ZM108.688 35.722C108.678 35.9482 108.766 36.1744 108.923 36.344C109.089 36.5043 109.314 36.5891 109.539 36.5797C109.842 36.5891 110.126 36.476 110.331 36.2592C110.536 36.033 110.644 35.7314 110.634 35.4204C110.644 35.1942 110.566 34.968 110.4 34.7983C110.233 34.6381 110.008 34.5532 109.774 34.5721C109.48 34.5627 109.187 34.6852 108.991 34.8925C108.786 35.1093 108.678 35.4109 108.688 35.722Z" fill="white"/>
<path d="M115.651 35.4958C115.612 35.9953 115.427 36.3912 115.114 36.6833C114.781 36.985 114.341 37.1452 113.891 37.1263C113.461 37.1263 113.119 37.0038 112.855 36.7493C112.6 36.5043 112.463 36.165 112.463 35.7502C112.463 35.5523 112.493 35.3638 112.542 35.1753C112.591 35.0056 112.669 34.836 112.776 34.6852C112.933 34.4684 113.138 34.2893 113.392 34.1668C113.647 34.0443 113.921 33.9783 114.204 33.9877C114.527 33.9783 114.85 34.0631 115.114 34.2422C115.358 34.4118 115.524 34.6663 115.593 34.9585H114.918C114.859 34.8266 114.762 34.7229 114.634 34.6569C114.488 34.5815 114.331 34.5438 114.165 34.5532C113.872 34.5438 113.578 34.6663 113.383 34.8737C113.177 35.0999 113.06 35.4015 113.079 35.7125C113.07 35.9387 113.148 36.165 113.314 36.3346C113.48 36.4948 113.705 36.5797 113.94 36.5608C114.341 36.5608 114.703 36.3535 114.889 36.0047H113.627L113.735 35.4863L115.651 35.4958Z" fill="white"/>
<path d="M116.688 37.0697L117.294 34.063H117.9L117.294 37.0697H116.688Z" fill="white"/>
<path d="M118.741 37.0697L119.348 34.063H121.089L120.991 34.572H119.866L119.719 35.2883H120.844L120.736 35.7972H119.612L119.455 36.5607H120.58L120.472 37.0697H118.741Z" fill="white"/>
<path d="M124.237 34.8734H123.641V34.8357C123.651 34.7414 123.612 34.6566 123.553 34.5812C123.494 34.5152 123.406 34.4869 123.318 34.4869C123.22 34.4869 123.132 34.5152 123.064 34.5812C122.995 34.6472 122.956 34.732 122.966 34.8168C122.966 34.9394 123.113 35.0902 123.406 35.2692C123.475 35.3069 123.533 35.3446 123.572 35.3729C123.729 35.4578 123.866 35.5803 123.973 35.7311C124.052 35.8725 124.091 36.0233 124.081 36.1835C124.091 36.438 123.983 36.6925 123.788 36.8621C123.582 37.0412 123.308 37.1449 123.035 37.126C122.712 37.126 122.467 37.0412 122.291 36.881C122.125 36.7207 122.037 36.4757 122.037 36.1741V36.0987H122.634C122.634 36.1081 122.634 36.1175 122.634 36.1364C122.634 36.1458 122.634 36.1647 122.634 36.1647C122.624 36.2778 122.663 36.3909 122.741 36.4757C122.819 36.5511 122.927 36.5888 123.035 36.5888C123.152 36.5888 123.26 36.5511 123.338 36.4757C123.416 36.4003 123.455 36.2872 123.455 36.1835C123.455 36.1081 123.436 36.0327 123.396 35.9761C123.328 35.8913 123.24 35.8253 123.142 35.7688C123.113 35.7594 123.074 35.7311 123.025 35.7028C122.859 35.618 122.702 35.5049 122.555 35.3729C122.487 35.3069 122.438 35.2221 122.399 35.1373C122.36 35.0525 122.34 34.9582 122.34 34.864C122.33 34.6283 122.428 34.4021 122.614 34.2419C122.819 34.0817 123.074 33.9968 123.338 34.0063C123.582 33.9968 123.817 34.0628 124.003 34.2136C124.169 34.355 124.257 34.5623 124.247 34.7791C124.247 34.8074 124.247 34.8263 124.247 34.8357C124.247 34.8451 124.237 34.864 124.237 34.8734Z" fill="white"/>
<path d="M127.572 37.0697L128.179 34.063H128.785L128.276 36.5513H129.303L129.196 37.0697H127.572Z" fill="white"/>
<path d="M130.663 37.0697L131.269 34.063H131.875L131.367 36.5513H132.394L132.286 37.0697H130.663Z" fill="white"/>
<path d="M136.863 36.1179C136.736 36.4195 136.521 36.6834 136.237 36.8625C135.954 37.0416 135.611 37.1358 135.269 37.1264C135.093 37.1264 134.917 37.1075 134.751 37.051C134.389 36.9379 134.086 36.6834 133.919 36.3441C133.822 36.1461 133.782 35.9388 133.782 35.722C133.782 35.4958 133.831 35.2696 133.919 35.0622C134.007 34.8455 134.144 34.6569 134.311 34.4967C134.467 34.3365 134.663 34.214 134.868 34.1291C135.083 34.0443 135.318 33.9972 135.553 33.9972C135.885 33.9877 136.218 34.0914 136.482 34.2799C136.746 34.4684 136.922 34.7418 137 35.0434H136.325C136.257 34.8926 136.139 34.77 136.002 34.6758C135.846 34.591 135.67 34.5438 135.494 34.5533C135.357 34.5533 135.22 34.5815 135.093 34.6287C134.966 34.6852 134.848 34.7606 134.751 34.8643C134.643 34.968 134.555 35.0905 134.496 35.2319C134.438 35.3733 134.408 35.5146 134.408 35.6655C134.399 35.9011 134.487 36.1367 134.663 36.3158C134.829 36.4855 135.064 36.5703 135.308 36.5609C135.474 36.5609 135.65 36.5232 135.797 36.4478C135.954 36.3629 136.09 36.2498 136.198 36.1084L136.863 36.1179Z" fill="white"/>
</svg>
