<svg width="119" height="88" viewBox="0 0 119 88" fill="none" xmlns="http://www.w3.org/2000/svg">
<g clip-path="url(#clip0_1_223)">
<path fill-rule="evenodd" clip-rule="evenodd" d="M2.00868 26.0169H71.849C72.95 26.0169 73.8577 26.9356 73.8577 28.0498V74.8744C73.8577 75.9885 72.9596 76.9072 71.849 76.9072H2.00868C0.90777 76.9072 0 75.9885 0 74.8744V28.0498C0 26.9356 0.90777 26.0169 2.00868 26.0169ZM104.046 44.821H101.323V39.3088H104.046L104.287 44.821H104.046ZM37.0544 18.6282H34.3311V13.116H37.0544V18.6282ZM35.5672 10.3599H34.3311V9.10885V7.73079H35.6927H39.9033V10.4869H35.6927L35.5672 10.3599ZM42.6266 10.4869V7.73079H48.0732V10.4869H42.6266ZM50.8062 10.4869V7.73079H56.2528V10.4869H50.8062ZM58.9761 10.4869V7.73079H64.4227V10.4869H58.9761ZM67.1557 10.4869V7.73079H72.6023V10.4869H67.1557ZM75.3256 10.4869V7.73079H80.7722V10.4869H75.3256ZM82.8968 66.8601H87.6674V64.104H82.8968L83.1382 66.8601H82.8968ZM90.3907 66.8601V64.104H95.8373V66.8601H90.6225H90.3907ZM98.5703 66.8601V64.104H102.684V64.1333H104.046V65.4821V66.8601H102.684H98.5703ZM104.046 61.3675H101.323V55.8552H104.046L104.287 61.3675H104.046ZM104.046 53.0991H101.323V47.5869H104.046L104.287 53.0991H104.046ZM115.152 23.7495C115.2 23.7495 115.248 23.7495 115.287 23.7592C115.586 23.2315 115.857 22.6744 116.108 22.088C116.117 22.0782 116.117 22.0684 116.127 22.0587C116.494 21.1693 116.784 20.2506 116.967 19.2928C117.112 18.55 117.209 17.7974 117.238 17.0156H112.815C112.737 19.2928 112.061 21.5309 110.816 23.7397L115.152 23.7495ZM114.379 25.1764H109.927C108.575 27.1604 106.75 29.1151 104.471 31.0502C104.828 31.0014 105.185 30.9427 105.533 30.8743C106.489 30.6788 107.407 30.3954 108.295 30.0045C109.193 29.6135 110.033 29.1542 110.816 28.6264C111.598 28.0987 112.312 27.5025 112.979 26.8281C113.491 26.3101 113.964 25.7628 114.379 25.1764ZM100.666 31.0502C98.3868 29.1151 96.5616 27.1604 95.2096 25.1764H90.7577C91.1826 25.7628 91.6558 26.3101 92.1676 26.8281C92.834 27.5025 93.5486 28.0987 94.3308 28.6264C95.1034 29.1542 95.9436 29.6135 96.8513 30.0045C96.861 30.0142 96.8707 30.0142 96.8803 30.024C97.7591 30.3954 98.6669 30.6886 99.6133 30.8743C99.9609 30.9427 100.318 31.0014 100.676 31.0502H100.666ZM89.821 23.7495H94.3019C93.0561 21.5407 92.3801 19.2928 92.3028 17.0253H87.8799C87.9185 17.8072 88.0054 18.5598 88.1503 19.3026C88.3434 20.2701 88.6235 21.1986 89.0098 22.0978C89.2512 22.6744 89.5216 23.2217 89.821 23.7495ZM87.8799 15.5886H92.3318C92.496 13.3603 93.2299 11.1222 94.5336 8.86451H89.821C89.5216 9.39228 89.2512 9.93959 89.0098 10.5162C89.0001 10.526 89.0001 10.5358 88.9904 10.5455C88.6235 11.4349 88.3338 12.3536 88.1503 13.3114C88.0054 14.0542 87.9088 14.8068 87.8799 15.5886ZM90.7384 7.43759H95.4414C96.7837 5.4829 98.551 3.51844 100.753 1.5442C100.357 1.59307 99.9706 1.65171 99.594 1.7299C98.6379 1.92537 97.7205 2.2088 96.832 2.59974C95.9339 2.99067 95.0938 3.45003 94.3115 3.97779C93.5293 4.50556 92.8147 5.10174 92.1483 5.77611C91.6365 6.28432 91.1633 6.83164 90.7384 7.43759ZM104.355 1.53443C106.566 3.50867 108.334 5.47313 109.666 7.42782H114.369C113.944 6.84141 113.471 6.2941 112.959 5.77611C112.293 5.10174 111.578 4.50556 110.796 3.97779C110.024 3.45003 109.184 2.99067 108.276 2.59974C108.266 2.58996 108.256 2.58996 108.247 2.58019C107.368 2.2088 106.46 1.91559 105.514 1.7299C105.128 1.65171 104.741 1.59307 104.355 1.53443ZM115.296 8.86451H110.584C111.887 11.1222 112.621 13.3603 112.786 15.5886H117.238C117.199 14.8068 117.112 14.0542 116.967 13.3114C116.774 12.3439 116.494 11.4154 116.108 10.5162C115.866 9.93959 115.596 9.39228 115.296 8.86451ZM99.3236 0.322524C100.367 0.107508 101.448 0 102.559 0C103.669 0 104.741 0.107508 105.794 0.322524C106.827 0.527766 107.822 0.840516 108.797 1.26077C108.807 1.26077 108.826 1.27055 108.836 1.28032C109.802 1.70058 110.719 2.2088 111.578 2.78543C112.438 3.36206 113.23 4.02666 113.954 4.75967C114.688 5.49268 115.335 6.2941 115.905 7.16393C116.484 8.03377 116.977 8.96225 117.392 9.93959C117.817 10.9365 118.126 11.9627 118.338 13.0182C118.551 14.0738 118.657 15.1684 118.657 16.2923C118.657 17.4163 118.551 18.5011 118.338 19.5664C118.136 20.6122 117.827 21.6189 117.411 22.606C117.411 22.6157 117.402 22.6353 117.392 22.6451C116.977 23.6322 116.475 24.5509 115.905 25.4207C115.335 26.2906 114.678 27.092 113.954 27.825C113.23 28.5678 112.438 29.2226 111.578 29.7992C110.719 30.3856 109.802 30.8841 108.836 31.3043C107.851 31.7344 106.837 32.0471 105.794 32.2621C104.751 32.4772 103.669 32.5847 102.559 32.5847C101.448 32.5847 100.376 32.4772 99.3236 32.2621C98.2903 32.0569 97.2956 31.7441 96.3202 31.3239C96.3105 31.3239 96.2912 31.3141 96.2816 31.3043C95.3159 30.8841 94.3984 30.3759 93.539 29.7992C92.6795 29.2226 91.8876 28.558 91.1633 27.825C90.4294 27.092 89.7823 26.2906 89.2126 25.4207C88.6331 24.5509 88.1406 23.6224 87.7254 22.6451C87.3004 21.6482 86.9914 20.622 86.779 19.5664C86.5665 18.5109 86.4603 17.4163 86.4603 16.2923C86.4603 15.1684 86.5665 14.0835 86.779 13.0182C86.9818 11.9725 87.2908 10.9658 87.706 9.97869C87.706 9.96891 87.7157 9.94937 87.7254 9.93959C88.1406 8.95248 88.6428 8.03377 89.2126 7.16393C89.7823 6.2941 90.439 5.49268 91.1633 4.75967C91.8876 4.01689 92.6795 3.36206 93.539 2.78543C94.3984 2.19902 95.3159 1.70058 96.2816 1.28032C97.2569 0.85029 98.2806 0.537539 99.3236 0.322524ZM103.264 2.46291V7.42782H107.938C106.711 5.78588 105.156 4.13417 103.264 2.46291ZM103.264 8.86451V15.5886H111.376C111.192 13.3798 110.381 11.1417 108.932 8.86451H103.264ZM103.264 17.0156V23.7397H109.164C110.564 21.5114 111.308 19.2732 111.395 17.0156H103.264ZM103.264 25.1764V30.1999C105.263 28.5385 106.904 26.8574 108.179 25.1764H103.264ZM101.854 30.1999V25.1764H96.9383C98.2033 26.8574 99.8451 28.5385 101.854 30.1999ZM101.854 23.7495V17.0253H93.7128C93.7997 19.283 94.5529 21.5211 95.9436 23.7495H101.854ZM101.854 15.5886V8.86451H96.185C94.7364 11.1417 93.9252 13.3798 93.7417 15.5886H101.854ZM101.854 7.43759V2.46291C99.9609 4.13417 98.4061 5.78588 97.1797 7.42782H101.854V7.43759ZM27.8222 79.7122H46.0355C46.0838 82.8984 47.3779 85.7522 50.8931 88.0001H22.9647C25.7749 85.9379 27.8318 83.4261 27.8222 79.7122ZM36.9289 70.056C38.3485 70.056 39.5073 71.2289 39.5073 72.6656C39.5073 74.1023 38.3485 75.2751 36.9289 75.2751C35.5093 75.2751 34.3504 74.1023 34.3504 72.6656C34.3504 71.2289 35.4996 70.056 36.9289 70.056ZM6.03571 29.8481H67.8124C68.7877 29.8481 69.5893 30.6593 69.5893 31.6464V66.6353C69.5893 67.6225 68.7877 68.4337 67.8124 68.4337H6.03571C5.06034 68.4337 4.25879 67.6225 4.25879 66.6353V31.6464C4.25879 30.6495 5.06034 29.8481 6.03571 29.8481Z" fill="white"/>
</g>
<defs>
<clipPath id="clip0_1_223">
<rect width="118.542" height="87.9076" fill="white" transform="scale(1.00105)"/>
</clipPath>
</defs>
</svg>
