<svg width="119" height="104" viewBox="0 0 119 104" fill="none" xmlns="http://www.w3.org/2000/svg">
<g clip-path="url(#clip0_1_228)">
<path fill-rule="evenodd" clip-rule="evenodd" d="M57.6433 19.8208C58.9953 19.8208 60.328 19.8965 61.6413 20.0481V8.87342C61.0136 8.64614 60.4632 8.28628 59.9996 7.83172C59.1498 6.99835 58.6283 5.86195 58.6283 4.59296C58.6283 3.33345 59.1498 2.18758 59.9996 1.35421C60.8494 0.520852 62.0083 0.00947003 63.3023 0.00947003C64.5867 0.00947003 65.7552 0.520852 66.6051 1.35421C67.4549 2.18758 67.9764 3.32398 67.9764 4.59296C67.9764 5.85248 67.4549 6.99835 66.6051 7.83172C66.1512 8.27681 65.5814 8.64614 64.9634 8.87342V20.5878C68.0729 21.2507 71.0184 22.3303 73.7417 23.7603V19.442C73.7417 18.5423 74.4853 17.8131 75.4027 17.8131H87.0299C87.2616 17.2355 87.6189 16.7146 88.0632 16.279C88.913 15.4456 90.0718 14.9342 91.3659 14.9342C92.6503 14.9342 93.8188 15.4456 94.6686 16.279C95.5185 17.1123 96.0399 18.2487 96.0399 19.5177C96.0399 20.7772 95.5185 21.9231 94.6686 22.7565C93.8188 23.5898 92.66 24.1012 91.3659 24.1012C90.0718 24.1012 88.9033 23.5898 88.0728 22.7565C87.59 22.283 87.2133 21.7053 86.9816 21.0613H77.083V25.7585C83.9975 30.4556 89.0578 37.5866 90.97 45.8918H112.061V29.1961C111.549 28.9688 111.076 28.6468 110.69 28.2586C109.84 27.4252 109.318 26.2888 109.318 25.0198C109.318 23.7603 109.84 22.6144 110.69 21.7811C111.54 20.9477 112.698 20.4363 113.993 20.4363C115.277 20.4363 116.445 20.9477 117.295 21.7811C118.145 22.6144 118.667 23.7508 118.667 25.0198C118.667 26.2793 118.145 27.4252 117.295 28.2586C116.764 28.7794 116.107 29.1677 115.383 29.395V47.5301C115.383 48.4297 114.64 49.1589 113.722 49.1589H91.559C91.7329 50.5226 91.8198 51.9147 91.8198 53.3352C91.8198 55.2292 91.6556 57.0853 91.3466 58.8941H109.608C109.84 58.2786 110.207 57.7388 110.67 57.2842C111.52 56.4509 112.679 55.9395 113.973 55.9395C115.258 55.9395 116.426 56.4509 117.276 57.2842C118.126 58.1176 118.647 59.254 118.647 60.523C118.647 61.7825 118.126 62.9284 117.276 63.7617C116.426 64.5951 115.267 65.1065 113.973 65.1065C112.689 65.1065 111.52 64.5951 110.67 63.7617C110.217 63.3166 109.84 62.7674 109.608 62.1518H90.6223C88.4784 69.8604 83.6112 76.461 77.083 80.893V82.9291H86.9816C87.2133 82.2851 87.59 81.7074 88.0728 81.2339C88.9033 80.4006 90.0815 79.8892 91.3659 79.8892C92.66 79.8892 93.8188 80.4006 94.6686 81.2339C95.5185 82.0673 96.0399 83.2132 96.0399 84.4727C96.0399 85.7417 95.5185 86.8781 94.6686 87.7114C93.8188 88.5448 92.6503 89.0562 91.3659 89.0562C90.0718 89.0562 88.913 88.5448 88.0632 87.7114C87.6286 87.2853 87.2713 86.7644 87.0299 86.1773H75.4124C74.4949 86.1773 73.7513 85.4481 73.7513 84.5484V82.8912C71.028 84.3212 68.0729 85.4007 64.973 86.0636V95.117C65.6007 95.3443 66.1608 95.7136 66.6147 96.1587C67.4646 96.9921 67.986 98.1379 67.986 99.3974C67.986 100.666 67.4646 101.803 66.6147 102.636C65.7649 103.47 64.5964 103.981 63.312 103.981C62.0179 103.981 60.8591 103.47 60.0093 102.636C59.1594 101.803 58.638 100.657 58.638 99.3974C58.638 98.1285 59.1594 96.9921 60.0093 96.1587C60.4728 95.7041 61.0233 95.3443 61.651 95.117V86.6129C60.3376 86.7644 59.0049 86.8402 57.6529 86.8402C55.6346 86.8402 53.6549 86.6697 51.7331 86.3383V99.1512C51.7331 100.051 50.9895 100.78 50.0721 100.78H31.5691C31.3373 101.5 30.9414 102.144 30.4102 102.655C29.5604 103.488 28.3919 104 27.1075 104C25.8134 104 24.6546 103.488 23.8048 102.655C22.9549 101.822 22.4335 100.676 22.4335 99.4164C22.4335 98.1474 22.9549 97.011 23.8048 96.1776C24.6546 95.3443 25.8231 94.8329 27.1075 94.8329C28.4016 94.8329 29.5604 95.3443 30.4102 96.1776C30.8062 96.5659 31.1249 97.0205 31.3663 97.5224H48.4014V85.5996C45.2242 84.7284 42.2305 83.412 39.4976 81.7264C39.1982 81.9915 38.8119 82.1525 38.3773 82.1525H28.276C28.0442 82.7491 27.6773 83.2795 27.2234 83.7151C26.3736 84.5484 25.2051 85.0598 23.9207 85.0598C22.6363 85.0598 21.4678 84.5484 20.6179 83.7151C19.7681 82.8912 19.2466 81.7453 19.2466 80.4763C19.2466 79.2073 19.7681 78.0709 20.6179 77.2376C21.4678 76.4042 22.6363 75.8928 23.9207 75.8928C25.2051 75.8928 26.3736 76.4042 27.2234 77.2376C27.6966 77.7016 28.0732 78.2698 28.305 78.8948H35.5575C29.261 73.6579 24.925 66.2334 23.7758 57.8051H6.60546V74.5102C7.11729 74.7375 7.59049 75.0595 7.97677 75.4477C8.8266 76.2811 9.34808 77.4175 9.34808 78.6865C9.34808 79.946 8.8266 81.0919 7.97677 81.9252C7.12695 82.7586 5.96809 83.27 4.67404 83.27C3.38965 83.27 2.22113 82.7586 1.37131 81.9252C0.521484 81.1014 0 79.9555 0 78.6865C0 77.427 0.521484 76.2811 1.37131 75.4477C1.90245 74.9269 2.55913 74.5386 3.28342 74.3113V56.1857C3.28342 55.286 4.02701 54.5569 4.94444 54.5569H23.4861C23.4668 54.1496 23.4668 53.7424 23.4668 53.3352C23.4668 50.39 23.8531 47.5396 24.5773 44.8217H9.04871C8.81694 45.4372 8.44997 45.977 7.98643 46.4316C7.1366 47.2649 5.97775 47.7763 4.6837 47.7763C3.3993 47.7763 2.23079 47.2649 1.38097 46.4316C0.531141 45.5982 0.00965711 44.4618 0.00965711 43.1928C0.00965711 41.9333 0.531141 40.7874 1.38097 39.9541C2.23079 39.1207 3.38964 38.6093 4.6837 38.6093C5.96809 38.6093 7.1366 39.1207 7.98643 39.9541C8.44031 40.3992 8.81694 40.9484 9.04871 41.564H25.63C27.8704 35.702 31.7429 30.6261 36.697 26.857V25.1145H28.2953C28.0636 25.7395 27.6869 26.3077 27.2137 26.7718C26.3639 27.6051 25.1954 28.1165 23.911 28.1165C22.6266 28.1165 21.4581 27.6051 20.6083 26.7718C19.7584 25.9384 19.237 24.802 19.237 23.533C19.237 22.264 19.7584 21.1182 20.6083 20.2943C21.4581 19.4609 22.6266 18.9495 23.911 18.9495C25.1954 18.9495 26.3639 19.4609 27.2137 20.2943C27.6676 20.7394 28.0249 21.2697 28.2664 21.8568H38.3677C39.2851 21.8568 40.0287 22.586 40.0287 23.4857V24.6221C42.6168 23.0974 45.427 21.8947 48.3918 21.0708V6.4775H31.3663C31.1345 6.97941 30.8062 7.44344 30.4102 7.82225C29.5604 8.65561 28.4016 9.16699 27.1075 9.16699C25.8231 9.16699 24.6546 8.65561 23.8048 7.82225C22.9549 6.98888 22.4335 5.85248 22.4335 4.5835C22.4335 3.32398 22.9549 2.17811 23.8048 1.34474C24.6546 0.511382 25.8134 0 27.1075 0C28.3919 0 29.5604 0.511382 30.4102 1.34474C30.9414 1.8656 31.3373 2.50956 31.5691 3.21981H50.0624C50.9799 3.21981 51.7235 3.949 51.7235 4.84866V20.3227C53.6452 19.9912 55.6249 19.8208 57.6433 19.8208ZM43.8916 49.9828H46.6245V49.6608V44.3292C46.6245 41.2799 47.8993 38.5146 49.9466 36.507C51.9939 34.4993 54.8234 33.2493 57.933 33.2493C61.0426 33.2493 63.8625 34.4993 65.9098 36.507C67.9571 38.5146 69.2318 41.2893 69.2318 44.3292V49.6608V49.9828H71.4047C71.8875 49.9828 72.2835 50.3711 72.2835 50.8446V69.0839C72.2835 69.5574 71.8875 69.9456 71.4047 69.9456H43.8916C43.4087 69.9456 43.0128 69.5574 43.0128 69.0839V50.8446C43.0128 50.3711 43.4087 49.9828 43.8916 49.9828ZM51.0088 49.9828H64.8282V49.6608V44.2724C64.8282 42.4068 64.0459 40.7117 62.8002 39.4806C61.5447 38.2495 59.8161 37.4919 57.9233 37.4919C56.0209 37.4919 54.2923 38.2589 53.0368 39.4806C51.7814 40.7117 51.0088 42.4068 51.0088 44.2724V49.6608V49.9828ZM57.9813 59.9642L59.3719 66.2807L55.5477 66.2902L56.6679 59.8885C55.6249 59.557 54.862 58.6006 54.862 57.4641C54.862 56.0626 56.0209 54.9262 57.4501 54.9262C58.8794 54.9262 60.0382 56.0626 60.0382 57.4641C60.0576 58.7047 59.1594 59.7275 57.9813 59.9642Z" fill="#04102A"/>
</g>
<defs>
<clipPath id="clip0_1_228">
<rect width="118.542" height="103.891" fill="white" transform="scale(1.00105)"/>
</clipPath>
</defs>
</svg>
