<svg width="65" height="65" viewBox="0 0 65 65" fill="none" xmlns="http://www.w3.org/2000/svg">
<g clip-path="url(#clip0_1_290)">
<path d="M1.9043 65H21.3379C22.3896 65 23.2422 64.1473 23.2422 63.0957V60.974C23.2422 56.5717 20.7815 52.7332 17.1633 50.7618C18.4483 49.3976 19.2384 47.5621 19.2384 45.5444C19.2384 41.3443 15.8213 37.9272 11.6212 37.9272C7.42105 37.9272 4.00398 41.3443 4.00398 45.5444C4.00398 47.5621 4.794 49.3976 6.07902 50.7618C2.46073 52.7332 0 56.5717 0 60.974V63.0957C0 64.1473 0.852617 65 1.9043 65ZM7.81257 45.5444C7.81257 43.4443 9.52111 41.7358 11.6212 41.7358C13.7212 41.7358 15.4298 43.4443 15.4298 45.5444C15.4298 47.6445 13.7212 49.353 11.6212 49.353C9.52111 49.353 7.81257 47.6445 7.81257 45.5444ZM11.6212 53.1616C15.7011 53.1616 19.4336 56.3599 19.4336 61.1914H3.80859C3.80859 56.3851 7.51944 53.1616 11.6212 53.1616Z" fill="#04102A"/>
<path d="M58.9211 50.7618C60.2061 49.3976 60.9961 47.5621 60.9961 45.5444C60.9961 41.3443 57.579 37.9272 53.3789 37.9272C49.1788 37.9272 45.7617 41.3443 45.7617 45.5444C45.7617 47.5621 46.5518 49.3976 47.8368 50.7618C44.2186 52.7332 41.7579 56.5715 41.7579 60.974V63.0957C41.7579 64.1473 42.6105 65 43.6622 65H63.0957C64.1473 65 64.9999 64.1473 64.9999 63.0957V60.974C64.9999 56.5717 62.5392 52.7332 58.9211 50.7618ZM49.5702 45.5444C49.5702 43.4443 51.2787 41.7358 53.3788 41.7358C55.4788 41.7358 57.1874 43.4443 57.1874 45.5444C57.1874 47.6445 55.4788 49.353 53.3788 49.353C51.2787 49.353 49.5702 47.6445 49.5702 45.5444ZM61.1914 61.1914H45.5663C45.5663 56.3851 49.2772 53.1616 53.3788 53.1616C57.4586 53.1616 61.1914 56.3595 61.1914 61.1914Z" fill="#04102A"/>
<path d="M44.1211 25.1685V23.0468C44.1211 18.6445 41.6604 14.806 38.0422 12.8346C39.3271 11.4703 40.1172 9.63485 40.1172 7.61719C40.1172 3.41707 36.7001 0 32.5 0C28.2999 0 24.8828 3.41707 24.8828 7.61719C24.8828 9.63485 25.6728 11.4703 26.9578 12.8346C23.3397 14.806 20.8789 18.6445 20.8789 23.0468V25.1685C20.8789 26.2201 21.7316 27.0728 22.7832 27.0728H42.2168C43.2685 27.0728 44.1211 26.2201 44.1211 25.1685ZM28.6914 7.61719C28.6914 5.51713 30.3999 3.80859 32.5 3.80859C34.6 3.80859 36.3086 5.51713 36.3086 7.61719C36.3086 9.71725 34.6 11.4258 32.5 11.4258C30.3999 11.4258 28.6914 9.71725 28.6914 7.61719ZM40.3125 23.2642H24.6874C24.6874 18.4578 28.3983 15.2344 32.5 15.2344C36.5796 15.2344 40.3125 18.4323 40.3125 23.2642Z" fill="#04102A"/>
<path d="M40.1932 48.1215C37.7053 48.9388 35.0818 49.353 32.396 49.353C29.8043 49.353 27.2663 48.966 24.8528 48.2026C23.8498 47.8858 22.7799 48.4413 22.4629 49.4439C22.1458 50.4466 22.7016 51.5167 23.7043 51.8338C26.4896 52.7147 29.414 53.1615 32.3959 53.1615C35.4863 53.1615 38.5096 52.6831 41.3818 51.7397C42.381 51.4116 42.9249 50.3354 42.5967 49.3363C42.2685 48.3372 41.1925 47.793 40.1932 48.1215Z" fill="#04102A"/>
<path d="M14.9462 15.7814C12.8431 17.8088 11.0552 20.1655 9.63215 22.7865C8.15747 25.5026 7.13524 28.3878 6.59391 31.3619C6.38177 32.5274 7.27616 33.6074 8.46964 33.6074C9.37203 33.6074 10.1736 32.9632 10.3409 32.0439C10.8099 29.4676 11.6976 26.9644 12.9791 24.6038C14.2161 22.3259 15.767 20.2802 17.5893 18.5236C18.3465 17.7938 18.3687 16.5882 17.6388 15.831C16.9089 15.0738 15.7034 15.0516 14.9462 15.7814Z" fill="#04102A"/>
<path d="M50.0538 15.7816C49.2965 15.0516 48.091 15.074 47.3611 15.8311C46.6312 16.5884 46.6533 17.794 47.4106 18.5238C49.2329 20.2803 50.784 22.3259 52.0208 24.604C53.3025 26.9647 54.19 29.4679 54.659 32.0441C54.8472 33.0776 55.8374 33.7649 56.8735 33.5765C57.9081 33.3882 58.5943 32.3966 58.406 31.3621C57.8647 28.3879 56.8425 25.5028 55.3678 22.7866C53.9448 20.1657 52.1569 17.8088 50.0538 15.7816Z" fill="#04102A"/>
</g>
<defs>
<clipPath id="clip0_1_290">
<rect width="64.0333" height="64.0333" fill="white" transform="scale(1.0151)"/>
</clipPath>
</defs>
</svg>
