<svg width="19" height="18" viewBox="0 0 19 18" fill="none" xmlns="http://www.w3.org/2000/svg">
<g clip-path="url(#clip0_1_647)">
<path d="M13.257 1.75L16.2586 4.75L13.257 7.75" stroke="#ADB7C2" stroke-width="1.8" stroke-linecap="round" stroke-linejoin="round"/>
<path d="M10.2554 4.75H16.2586" stroke="#ADB7C2" stroke-width="1.8" stroke-linecap="round" stroke-linejoin="round"/>
<path d="M16.5079 12.6901V14.9401C16.5087 15.1489 16.4659 15.3557 16.3822 15.5471C16.2985 15.7385 16.1757 15.9103 16.0217 16.0515C15.8677 16.1927 15.6859 16.3002 15.4879 16.3671C15.2899 16.434 15.0801 16.4589 14.872 16.4401C12.5629 16.1893 10.3449 15.4007 8.39608 14.1376C6.58299 12.9861 5.04581 11.4497 3.8937 9.63757C2.62551 7.68098 1.8363 5.45332 1.58998 3.13507C1.57123 2.92767 1.59589 2.71864 1.6624 2.52129C1.7289 2.32394 1.83579 2.14259 1.97626 1.98879C2.11673 1.83499 2.28771 1.7121 2.4783 1.62796C2.66889 1.54382 2.87492 1.50027 3.08327 1.50007H5.33446C5.69864 1.49649 6.05169 1.62538 6.32781 1.86272C6.60393 2.10006 6.78429 2.42966 6.83526 2.79007C6.93027 3.51012 7.10649 4.21712 7.36053 4.89757C7.4615 5.16602 7.48335 5.45776 7.4235 5.73823C7.36365 6.01871 7.22461 6.27616 7.02286 6.48007L6.06985 7.43257C7.13808 9.31023 8.69358 10.8649 10.5722 11.9326L11.5252 10.9801C11.7293 10.7784 11.9868 10.6395 12.2675 10.5796C12.5481 10.5198 12.84 10.5417 13.1086 10.6426C13.7894 10.8965 14.4968 11.0726 15.2172 11.1676C15.5817 11.219 15.9146 11.4025 16.1526 11.6832C16.3906 11.9639 16.517 12.3223 16.5079 12.6901Z" stroke="#ADB7C2" stroke-width="1.8" stroke-linecap="round" stroke-linejoin="round"/>
</g>
<defs>
<clipPath id="clip0_1_647">
<rect width="18.0095" height="18" fill="white"/>
</clipPath>
</defs>
</svg>
