<svg width="65" height="65" viewBox="0 0 65 65" fill="none" xmlns="http://www.w3.org/2000/svg">
<g clip-path="url(#clip0_1_300)">
<path d="M63.083 22.8516L57.3828 22.8897V1.9043C57.3828 0.852617 56.5302 0 55.4785 0H36.5625C35.8983 0 35.2819 0.346201 34.9362 0.913428L30.9288 7.49024H1.9043C0.852617 7.49024 0 8.34285 0 9.39453V47.4805C0 48.5322 0.852617 49.3848 1.9043 49.3848H11.6797C11.6801 57.7639 11.6788 57.3817 11.6807 57.446C11.7488 61.6228 15.1676 65 19.3604 65H63.0957C64.1474 65 65 64.1474 65 63.0957V24.7559C65 23.678 64.1089 22.8366 63.083 22.8516ZM3.80859 45.5762V11.2988H31.9985C32.6628 11.2988 33.2791 10.9526 33.6248 10.3854L37.6322 3.80859H53.5742V22.915L26.9141 23.0928V17.2656C26.9141 16.2139 26.0614 15.3613 25.0098 15.3613H19.3604C15.1253 15.3613 11.6797 18.8068 11.6797 23.042V45.5762H3.80859ZM23.1055 19.1699V25.0085V25.0109V49.6387C20.3282 49.8026 18.1495 49.1279 15.4883 50.6879V23.042C15.4883 20.9069 17.2254 19.1699 19.3604 19.1699H23.1055ZM61.1914 61.1914H19.3604C17.2254 61.1914 15.4883 59.4544 15.4883 57.3193C15.4883 55.1842 17.2254 53.4473 19.3604 53.4473H25.0098C26.0614 53.4473 26.9141 52.5947 26.9141 51.543V26.9014L61.1914 26.6729V61.1914Z" fill="#04102A"/>
<path d="M32.5 53.4473H55.4785C57.3603 53.4473 58.0978 50.9947 56.5308 49.9558L33.5523 34.7215C32.2937 33.8871 30.5957 34.7843 30.5957 36.3086V51.543C30.5957 52.5947 31.4483 53.4473 32.5 53.4473ZM34.4043 39.8559L49.1599 49.6387H34.4043V39.8559Z" fill="#04102A"/>
</g>
<defs>
<clipPath id="clip0_1_300">
<rect width="64.0333" height="64.0333" fill="white" transform="scale(1.0151)"/>
</clipPath>
</defs>
</svg>
