<svg width="115" height="119" viewBox="0 0 115 119" fill="none" xmlns="http://www.w3.org/2000/svg">
<g clip-path="url(#clip0_1_217)">
<path fill-rule="evenodd" clip-rule="evenodd" d="M6.63767 38.7564H13.2946V37.2069C13.2946 35.1344 13.7089 33.1589 14.4507 31.3576C15.231 29.4885 16.3582 27.7938 17.7743 26.3799C19.1809 24.966 20.8668 23.8233 22.7261 23.0388C24.518 22.2835 26.4833 21.867 28.5449 21.867H55.0185V21.7315V14.691C54.585 14.5361 54.1804 14.3327 53.7854 14.1099C53.2363 13.7807 52.7257 13.3836 52.2825 12.9382C51.5889 12.2409 51.0301 11.408 50.6448 10.4784C50.2787 9.5874 50.0764 8.59961 50.0764 7.58277C50.0764 6.55624 50.2787 5.57813 50.6448 4.68718C51.0301 3.75749 51.5889 2.91496 52.2825 2.21769C52.9762 1.52043 53.8047 0.95874 54.7295 0.571371C55.6158 0.193685 56.5985 0 57.61 0C58.6215 0 59.6042 0.203369 60.4905 0.571371C61.4153 0.95874 62.2535 1.52043 62.9471 2.21769C63.6407 2.91496 64.1995 3.7478 64.5849 4.68718C64.9509 5.57813 65.1532 6.56592 65.1532 7.58277C65.1532 8.6093 64.9509 9.5874 64.5849 10.4784C64.1995 11.408 63.6407 12.2506 62.9471 12.9382L62.9086 12.9769C62.4654 13.4127 61.9741 13.8001 61.4346 14.1196C61.0396 14.3521 60.6254 14.5554 60.2015 14.7007V21.7411V21.8767H86.6751C88.7367 21.8767 90.702 22.2931 92.4939 23.0485C94.3629 23.8329 96.0391 24.966 97.4457 26.3896C98.8522 27.8035 99.989 29.4982 100.769 31.3673C101.521 33.1782 101.925 35.1441 101.925 37.2166V38.766H108.341C109.228 38.766 110.095 38.9404 110.875 39.2696C111.694 39.6086 112.417 40.1025 113.023 40.7223L113.062 40.761C113.659 41.3711 114.141 42.0877 114.469 42.8915C114.796 43.6856 114.97 44.5379 114.97 45.4385V63.2381C114.97 64.1291 114.796 65.0007 114.469 65.7851C114.131 66.5986 113.64 67.3346 113.023 67.9447C111.829 69.1455 110.162 69.9009 108.332 69.9009H101.906C101.877 71.8862 101.463 73.794 100.74 75.5371C99.9601 77.4159 98.8329 79.1009 97.4168 80.5148C96.0102 81.9287 94.3243 83.0715 92.465 83.8559C90.6635 84.6113 88.7078 85.018 86.6462 85.018H76.4537V110.72H92.5228C92.6095 110.584 92.6962 110.439 92.7926 110.304C92.9852 110.023 93.1972 109.771 93.4284 109.529C93.9293 109.025 94.5363 108.609 95.2203 108.328C95.8754 108.057 96.5883 107.912 97.3301 107.912C98.0622 107.912 98.7944 108.057 99.4399 108.328C100.124 108.609 100.721 109.025 101.232 109.529C101.733 110.032 102.147 110.643 102.426 111.33C102.696 111.989 102.841 112.705 102.841 113.451C102.841 114.197 102.686 114.904 102.426 115.572C102.147 116.259 101.733 116.869 101.232 117.373C100.731 117.877 100.124 118.293 99.4399 118.574C98.7848 118.845 98.0719 118.99 97.3301 118.99C96.6075 118.99 95.9139 118.855 95.2588 118.584L95.2203 118.574C94.5363 118.293 93.939 117.877 93.4284 117.373C93.1201 117.063 92.8407 116.695 92.6095 116.317C92.4843 116.104 92.359 115.872 92.2723 115.64H73.9971C73.3131 115.64 72.7061 115.359 72.2533 114.913C71.7909 114.458 71.5212 113.838 71.5212 113.151V85.018H59.5657V108.483C59.7487 108.58 59.9317 108.677 60.1051 108.793C60.4327 108.996 60.741 109.258 61.0107 109.519C61.5213 110.032 61.9259 110.633 62.2053 111.32C62.4751 111.979 62.6196 112.696 62.6196 113.441C62.6196 114.168 62.4847 114.865 62.2149 115.523L62.2053 115.562C61.9259 116.25 61.5117 116.85 61.0107 117.363C60.5098 117.867 59.9028 118.283 59.2188 118.564C58.5637 118.835 57.8508 118.981 57.109 118.981C56.3672 118.981 55.6543 118.826 54.9992 118.564C54.3152 118.283 53.7083 117.867 53.2074 117.363C52.7064 116.86 52.2922 116.25 52.0128 115.562C51.7527 114.904 51.5985 114.187 51.5985 113.441C51.5985 112.715 51.7334 112.018 52.0031 111.359L52.0128 111.32C52.2922 110.633 52.7064 110.032 53.2074 109.519C53.4675 109.248 53.7661 109.016 54.084 108.812L54.1226 108.783C54.296 108.686 54.479 108.589 54.6621 108.493V85.018H38.7085V97.9658C38.7085 98.6534 38.4291 99.2635 37.986 99.709C37.5332 100.164 36.9263 100.435 36.2423 100.435H24.9322C24.8455 100.61 24.7492 100.765 24.6432 100.939C24.4505 101.229 24.229 101.51 23.9688 101.762L23.9207 101.801C23.4197 102.304 22.8128 102.721 22.1288 103.002C21.4737 103.273 20.7608 103.418 20.019 103.418C19.2965 103.418 18.6028 103.273 17.9477 103.011L17.9092 103.002C17.2252 102.721 16.6279 102.304 16.1173 101.801C15.6164 101.297 15.2021 100.687 14.9227 99.9995C14.653 99.341 14.5085 98.6244 14.5085 97.8787C14.5085 97.1427 14.6626 96.4164 14.9227 95.7482C15.2021 95.0606 15.6164 94.4505 16.1173 93.9469C16.6375 93.453 17.2637 93.0366 17.9477 92.7557C18.6028 92.4846 19.3157 92.3393 20.0575 92.3393C20.809 92.3393 21.5219 92.4942 22.1673 92.7557C22.8224 93.0366 23.4197 93.4336 23.911 93.9372L23.9496 93.9663C24.229 94.2471 24.4891 94.5667 24.701 94.9056C24.807 95.0896 24.9226 95.2833 25.0189 95.4964H33.7953V85.018H28.5545C26.4929 85.018 24.5276 84.6016 22.7357 83.8559C20.8668 83.0715 19.1905 81.9384 17.784 80.5148C16.3678 79.1009 15.231 77.4062 14.4507 75.5371C13.7281 73.794 13.3235 71.8862 13.2946 69.9009H6.63767C5.75137 69.9009 4.88433 69.7266 4.10399 69.3973C3.28512 69.0584 2.56259 68.5645 1.95566 67.9447L1.91712 67.9059C1.31983 67.2958 0.838139 66.5792 0.51059 65.7754C0.173408 64.991 0 64.1194 0 63.2285V45.4288C0 44.5379 0.173408 43.6663 0.51059 42.8818C0.847773 42.0684 1.3391 41.3324 1.95566 40.7223C2.56259 40.1122 3.29475 39.6086 4.10399 39.2696C4.88433 38.9404 5.74173 38.7564 6.63767 38.7564ZM43.9878 67.3927C43.853 67.2861 43.747 67.1796 43.641 67.0441C43.3327 66.6664 43.169 66.2306 43.1593 65.7948C43.1497 65.3493 43.2942 64.9135 43.5832 64.5261C43.6892 64.3906 43.7952 64.2743 43.9397 64.1581C44.431 63.7514 45.0765 63.5383 45.7123 63.5287C46.3481 63.519 46.9839 63.703 47.4945 64.0904C49.2382 65.4365 50.9531 66.4146 52.6582 67.0634C54.3441 67.7026 56.0108 68.0028 57.6582 67.9834C59.3152 67.964 60.9915 67.6154 62.7063 66.9666C64.4403 66.308 66.1744 65.3203 67.947 64.0516C68.4673 63.6739 69.1127 63.5093 69.7486 63.5384C70.3844 63.5674 71.0202 63.7901 71.5019 64.2162C71.6271 64.3325 71.7331 64.4487 71.8391 64.5939C72.1185 64.991 72.2533 65.4365 72.2244 65.8819C72.1955 66.3274 72.0221 66.7535 71.7042 67.1215C71.5886 67.2474 71.4634 67.3636 71.3092 67.4702C69.0935 69.0777 66.8681 70.298 64.6041 71.1405C62.3402 71.9733 60.0473 72.4188 57.7256 72.4479C55.3942 72.4769 53.0918 72.0799 50.7989 71.247C48.5253 70.4238 46.2614 69.1455 44.036 67.4314L43.9878 67.3927ZM38.1594 38.6208C38.7182 38.6208 39.2866 38.6789 39.8164 38.7854C40.3559 38.9016 40.8954 39.0566 41.406 39.2696C41.9262 39.4827 42.4272 39.7538 42.8799 40.0637C43.3327 40.3639 43.747 40.7029 44.1227 41.0806L44.1805 41.129C44.5755 41.5261 44.9319 41.9522 45.2402 42.4267L45.2595 42.4557C45.5581 42.9109 45.8183 43.3951 46.0302 43.9181C46.2421 44.4313 46.4059 44.9736 46.5119 45.516C46.6179 46.0583 46.6853 46.62 46.6853 47.1817C46.6853 47.7433 46.6275 48.3147 46.5119 48.8473C46.4059 49.3897 46.2421 49.9223 46.0302 50.4549C45.8183 50.9779 45.5485 51.4815 45.2402 51.9366C44.3058 53.3505 42.9667 54.4448 41.406 55.084C40.8954 55.2971 40.3559 55.4617 39.8068 55.5779C39.2673 55.6844 38.7085 55.7328 38.1498 55.7328C37.591 55.7328 37.0226 55.6747 36.4928 55.5779C35.9533 55.4617 35.4138 55.3067 34.8935 55.084C34.3733 54.8709 33.8724 54.5998 33.4099 54.2899C32.9283 53.9703 32.5044 53.612 32.119 53.2246C31.724 52.8276 31.3676 52.4015 31.0593 51.9269L31.04 51.8979C30.7414 51.4427 30.4813 50.9585 30.2693 50.4356C30.0574 49.9223 29.8936 49.38 29.778 48.8377C29.672 48.2953 29.6239 47.7337 29.6239 47.172C29.6239 46.6103 29.6817 46.0389 29.778 45.5063C29.8936 44.964 30.0478 44.4216 30.2693 43.9084C30.4813 43.3854 30.751 42.8818 31.0593 42.4267C31.3772 41.9425 31.7337 41.5164 32.119 41.129C32.514 40.7319 32.9379 40.3736 33.4099 40.0637L33.4388 40.0444C33.8916 39.7442 34.3733 39.4827 34.8935 39.2696C35.4041 39.0566 35.9436 38.8919 36.4831 38.7854C37.0322 38.6789 37.591 38.6208 38.1594 38.6208ZM77.0702 38.6208C77.629 38.6208 78.1974 38.6789 78.7272 38.7854C79.2667 38.9016 79.8062 39.0566 80.3168 39.2696C80.837 39.4827 81.338 39.7538 81.7908 40.0637C82.2339 40.3639 82.6386 40.6932 83.0143 41.0709C83.0335 41.0903 83.0624 41.1096 83.0817 41.129C83.4767 41.5261 83.8331 41.9522 84.1414 42.4267L84.1607 42.4557C84.4593 42.9109 84.7195 43.3951 84.9314 43.9181C85.1433 44.4313 85.3071 44.9736 85.4227 45.516C85.5287 46.0583 85.5769 46.62 85.5769 47.1817C85.5769 47.7433 85.5191 48.3147 85.4227 48.8473C85.3071 49.3897 85.153 49.932 84.9314 50.4549C84.7195 50.9779 84.4497 51.4815 84.1414 51.9366C83.8235 52.4208 83.4671 52.8469 83.0817 53.2343C82.6867 53.6314 82.2628 53.9897 81.7908 54.2996L81.7619 54.3189C81.2995 54.6192 80.8274 54.8806 80.3072 55.0937C79.7966 55.3067 79.2571 55.4714 78.708 55.5876C78.1685 55.6941 77.6097 55.7425 77.051 55.7425C76.4922 55.7425 75.9238 55.6844 75.394 55.5876C74.8545 55.4714 74.315 55.3164 73.7947 55.0937C73.2649 54.8709 72.7639 54.5998 72.3208 54.2996L72.2726 54.2608C71.8198 53.9509 71.4056 53.612 71.0299 53.2343C70.6349 52.8373 70.2784 52.4111 69.9701 51.9366L69.9509 51.9076C69.6522 51.4524 69.3921 50.9682 69.1802 50.4452C68.9682 49.932 68.8045 49.3897 68.6888 48.8473C68.5829 48.305 68.5251 47.7433 68.5251 47.1817C68.5251 46.62 68.5829 46.0486 68.6888 45.516C68.8045 44.9736 68.9586 44.4313 69.1802 43.9181C69.3921 43.3951 69.6619 42.8915 69.9701 42.4364C70.288 41.9522 70.6445 41.5261 71.0299 41.1387C71.4152 40.7513 71.8487 40.393 72.3208 40.0734C72.7832 39.7635 73.2745 39.502 73.7947 39.2696C74.3053 39.0566 74.8448 38.8919 75.3843 38.7854C75.9527 38.6789 76.5115 38.6208 77.0702 38.6208ZM17.0229 40.6448V69.6878C17.0229 71.247 17.3312 72.7384 17.8899 74.1039C18.4776 75.5178 19.335 76.7961 20.3947 77.871C21.4641 78.946 22.7357 79.8079 24.1423 80.3889C25.491 80.9506 26.9746 81.2605 28.5353 81.2605H86.6847C88.2358 81.2605 89.7194 80.9506 91.0778 80.3889C92.4843 79.7982 93.7559 78.9363 94.8253 77.871C95.8946 76.7961 96.752 75.5178 97.3301 74.1039C97.8888 72.7481 98.1971 71.2567 98.1971 69.6878V37.2069C98.1971 35.6477 97.8888 34.1467 97.3301 32.7909C96.7424 31.377 95.885 30.0986 94.8253 29.0237C93.7559 27.9487 92.4843 27.0868 91.0778 26.5058C89.729 25.9441 88.2454 25.6342 86.6847 25.6342H28.5449C26.9938 25.6342 25.5102 25.9441 24.1519 26.5058C22.7454 27.0965 21.4737 27.9584 20.4043 29.0237C19.335 30.0986 18.4776 31.377 17.8996 32.7909C17.3408 34.1467 17.0325 35.638 17.0325 37.2069L17.0229 40.6448ZM13.285 42.5138H6.63767C6.24269 42.5138 5.86697 42.5913 5.52979 42.7269C5.17334 42.8818 4.85542 43.0949 4.58568 43.3661L4.54714 43.3951C4.29667 43.6566 4.08472 43.9665 3.94985 44.3054C3.80534 44.6444 3.73791 45.0221 3.73791 45.4191V63.2188C3.73791 63.6158 3.81498 63.9935 3.94985 64.3325C4.10399 64.6908 4.31593 65.0104 4.58568 65.2815C5.1059 65.8045 5.82844 66.1337 6.62804 66.1337H13.285V42.5138ZM108.361 42.5138H101.945V66.1337H108.361C108.756 66.1337 109.131 66.0563 109.469 65.9207C109.825 65.7657 110.143 65.5527 110.413 65.2815C110.682 65.0104 110.904 64.6908 111.049 64.3325C111.193 63.9935 111.261 63.6158 111.261 63.2188V45.4288C111.261 45.0318 111.183 44.6541 111.049 44.3151C110.894 43.9568 110.682 43.6372 110.413 43.3661C110.143 43.0949 109.825 42.8722 109.469 42.7269C109.131 42.601 108.756 42.5138 108.361 42.5138Z" fill="#04102A"/>
</g>
<defs>
<clipPath id="clip0_1_217">
<rect width="114.546" height="118.542" fill="white" transform="scale(1.00386)"/>
</clipPath>
</defs>
</svg>
