<svg width="1920" height="635" viewBox="0 0 1920 635" fill="none" xmlns="http://www.w3.org/2000/svg">
<path d="M732.961 488.732L732.976 487.732L732.961 488.732ZM1504.83 259.205L1504.87 260.204L1504.83 259.205ZM1.99564 5.26259C2.22408 5.76544 2.81691 5.9879 3.31976 5.75946C3.82261 5.53101 4.04507 4.93818 3.81663 4.43533L1.99564 5.26259ZM8.13462 13.6871C7.89613 13.1889 7.29895 12.9784 6.80079 13.2169C6.30262 13.4554 6.09212 14.0526 6.33061 14.5508L8.13462 13.6871ZM10.7032 23.4805C10.9503 23.9745 11.551 24.1746 12.045 23.9274C12.5389 23.6803 12.739 23.0796 12.4919 22.5856L10.7032 23.4805ZM17.0852 31.5811C16.8301 31.0912 16.2262 30.9009 15.7363 31.156C15.2465 31.4111 15.0562 32.015 15.3112 32.5049L17.0852 31.5811ZM20.0482 41.4351C20.3106 41.9211 20.9173 42.1024 21.4033 41.8399C21.8893 41.5775 22.0705 40.9708 21.8081 40.4848L20.0482 41.4351ZM26.6311 49.2672C26.3619 48.785 25.7527 48.6123 25.2705 48.8815C24.7882 49.1507 24.6155 49.7599 24.8848 50.2422L26.6311 49.2672ZM29.9025 59.0881C30.1782 59.5667 30.7897 59.7311 31.2682 59.4554C31.7468 59.1797 31.9112 58.5682 31.6355 58.0896L29.9025 59.0881ZM36.675 66.7084C36.3932 66.2334 35.7797 66.0768 35.3047 66.3586C34.8297 66.6404 34.6731 67.2539 34.9549 67.7289L36.675 66.7084ZM40.2002 76.4453C40.4879 76.9167 41.1033 77.0657 41.5748 76.778C42.0462 76.4903 42.1952 75.8748 41.9075 75.4034L40.2002 76.4453ZM47.1625 83.899C46.8692 83.4311 46.252 83.2895 45.784 83.5828C45.3161 83.8761 45.1745 84.4933 45.4678 84.9613L47.1625 83.899ZM50.9063 93.5245C51.2051 93.989 51.8239 94.1232 52.2884 93.8244C52.7529 93.5256 52.8872 92.9068 52.5883 92.4423L50.9063 93.5245ZM58.062 100.843C57.7578 100.382 57.1375 100.255 56.6765 100.559C56.2155 100.863 56.0883 101.484 56.3924 101.945L58.062 100.843ZM62.0014 110.343C62.3108 110.801 62.9325 110.921 63.39 110.611C63.8476 110.302 63.9677 109.68 63.6584 109.223L62.0014 110.343ZM69.3542 117.547C69.0398 117.093 68.4168 116.98 67.9627 117.294C67.5086 117.609 67.3954 118.232 67.7098 118.686L69.3542 117.547ZM73.4744 126.914C73.7938 127.364 74.418 127.471 74.8686 127.151C75.3192 126.832 75.4256 126.208 75.1062 125.757L73.4744 126.914ZM81.0267 134.014C80.7023 133.567 80.077 133.467 79.63 133.791C79.1829 134.116 79.0834 134.741 79.4077 135.188L81.0267 134.014ZM85.3181 143.244C85.6472 143.688 86.2735 143.781 86.7171 143.452C87.1607 143.123 87.2535 142.496 86.9244 142.053L85.3181 143.244ZM93.0035 150.155C92.6696 149.715 92.0423 149.629 91.6023 149.963C91.1623 150.296 91.0763 150.924 91.4101 151.364L93.0035 150.155ZM97.5274 159.337C97.8659 159.774 98.4941 159.853 98.9306 159.514C99.367 159.176 99.4463 158.548 99.1078 158.111L97.5274 159.337ZM105.314 166.025C104.971 165.592 104.342 165.519 103.909 165.863C103.476 166.206 103.404 166.835 103.747 167.268L105.314 166.025ZM110.098 175.19C110.446 175.619 111.076 175.685 111.505 175.338C111.934 174.99 112 174.36 111.652 173.931L110.098 175.19ZM117.984 181.659C117.631 181.234 117.001 181.175 116.576 181.527C116.15 181.879 116.091 182.51 116.443 182.935L117.984 181.659ZM122.948 190.705C123.304 191.127 123.935 191.179 124.357 190.823C124.779 190.466 124.831 189.835 124.474 189.413L122.948 190.705ZM131.009 197.053C130.648 196.635 130.016 196.589 129.599 196.95C129.181 197.311 129.135 197.943 129.496 198.361L131.009 197.053ZM136.116 205.936C136.482 206.35 137.114 206.389 137.528 206.023C137.942 205.658 137.981 205.026 137.615 204.612L136.116 205.936ZM144.372 212.179C144.002 211.769 143.37 211.736 142.96 212.106C142.55 212.476 142.518 213.109 142.888 213.519L144.372 212.179ZM149.64 220.919C150.014 221.325 150.647 221.351 151.053 220.977C151.459 220.602 151.485 219.97 151.11 219.563L149.64 220.919ZM157.976 226.929C157.597 226.527 156.964 226.508 156.563 226.887C156.161 227.266 156.142 227.899 156.52 228.301L157.976 226.929ZM163.516 235.644C163.899 236.042 164.532 236.054 164.93 235.671C165.327 235.288 165.339 234.655 164.956 234.257L163.516 235.644ZM171.933 241.425C171.546 241.031 170.912 241.026 170.519 241.413C170.125 241.801 170.12 242.434 170.507 242.828L171.933 241.425ZM177.636 249.995C178.028 250.384 178.661 250.383 179.051 249.991C179.44 249.599 179.438 248.966 179.047 248.577L177.636 249.995ZM186.239 255.651C185.843 255.266 185.21 255.275 184.825 255.671C184.44 256.067 184.449 256.7 184.845 257.085L186.239 255.651ZM192.081 264.048C192.481 264.429 193.114 264.413 193.495 264.013C193.875 263.613 193.86 262.98 193.46 262.599L192.081 264.048ZM200.812 269.52C200.407 269.143 199.775 269.166 199.398 269.57C199.022 269.974 199.045 270.607 199.449 270.984L200.812 269.52ZM206.874 277.819C207.283 278.191 207.915 278.161 208.287 277.752C208.659 277.344 208.629 276.711 208.221 276.34L206.874 277.819ZM215.676 283.05C215.263 282.683 214.631 282.72 214.264 283.132C213.897 283.545 213.934 284.177 214.346 284.544L215.676 283.05ZM221.945 291.231C222.362 291.594 222.993 291.55 223.356 291.133C223.718 290.717 223.675 290.085 223.258 289.722L221.945 291.231ZM230.886 296.283C230.465 295.926 229.834 295.977 229.476 296.397C229.119 296.818 229.17 297.449 229.59 297.807L230.886 296.283ZM237.29 304.279C237.715 304.631 238.345 304.573 238.698 304.148C239.051 303.724 238.993 303.093 238.568 302.74L237.29 304.279ZM246.372 309.149C245.944 308.801 245.314 308.866 244.966 309.295C244.618 309.724 244.683 310.354 245.112 310.702L246.372 309.149ZM252.979 317.011C253.412 317.354 254.041 317.281 254.384 316.848C254.727 316.415 254.654 315.786 254.221 315.443L252.979 317.011ZM262.122 321.63C261.685 321.292 261.057 321.372 260.719 321.809C260.381 322.246 260.461 322.874 260.898 323.212L262.122 321.63ZM268.937 329.357C269.377 329.69 270.005 329.602 270.337 329.161C270.67 328.721 270.583 328.093 270.142 327.761L268.937 329.357ZM278.211 333.779C277.767 333.452 277.141 333.547 276.813 333.991C276.485 334.436 276.58 335.062 277.025 335.39L278.211 333.779ZM285.157 341.306C285.605 341.628 286.23 341.526 286.552 341.078C286.874 340.629 286.772 340.004 286.324 339.682L285.157 341.306ZM294.551 345.519C294.099 345.202 293.475 345.312 293.158 345.765C292.841 346.217 292.951 346.841 293.403 347.157L294.551 345.519ZM301.713 352.904C302.169 353.215 302.791 353.098 303.102 352.642C303.414 352.186 303.296 351.563 302.84 351.252L301.713 352.904ZM311.155 356.855C310.695 356.549 310.075 356.674 309.769 357.134C309.463 357.594 309.588 358.215 310.048 358.52L311.155 356.855ZM318.495 364.064C318.958 364.364 319.577 364.232 319.878 363.768C320.178 363.305 320.045 362.686 319.582 362.385L318.495 364.064ZM328.089 367.821C327.622 367.526 327.005 367.666 326.71 368.134C326.416 368.601 326.556 369.218 327.023 369.513L328.089 367.821ZM335.552 374.815C336.023 375.104 336.639 374.956 336.927 374.485C337.216 374.014 337.068 373.399 336.598 373.11L335.552 374.815ZM345.214 378.32C344.74 378.037 344.126 378.192 343.843 378.667C343.56 379.141 343.716 379.755 344.19 380.038L345.214 378.32ZM352.936 385.177C353.414 385.454 354.025 385.291 354.302 384.813C354.579 384.335 354.416 383.723 353.938 383.447L352.936 385.177ZM362.629 388.408C362.147 388.137 361.537 388.308 361.267 388.789C360.996 389.271 361.166 389.88 361.648 390.151L362.629 388.408ZM370.466 395.039C370.95 395.304 371.558 395.126 371.823 394.641C372.087 394.156 371.909 393.549 371.424 393.284L370.466 395.039ZM380.326 398.071C379.838 397.813 379.232 397.999 378.974 398.487C378.715 398.975 378.901 399.58 379.389 399.839L380.326 398.071ZM388.31 404.491C388.801 404.743 389.404 404.549 389.656 404.058C389.908 403.567 389.715 402.964 389.223 402.711L388.31 404.491ZM398.186 407.241C397.691 406.995 397.091 407.196 396.845 407.691C396.599 408.185 396.801 408.786 397.295 409.032L398.186 407.241ZM406.384 413.479C406.881 413.718 407.479 413.509 407.718 413.011C407.958 412.513 407.749 411.916 407.251 411.676L406.384 413.479ZM416.354 415.985C415.853 415.752 415.258 415.969 415.025 416.47C414.792 416.971 415.009 417.565 415.51 417.798L416.354 415.985ZM424.649 421.98C425.152 422.207 425.744 421.982 425.971 421.479C426.197 420.975 425.973 420.383 425.469 420.156L424.649 421.98ZM434.684 424.229C434.177 424.009 433.588 424.241 433.368 424.748C433.148 425.254 433.381 425.843 433.887 426.063L434.684 424.229ZM443.218 430.042C443.727 430.255 444.313 430.015 444.527 429.506C444.74 428.996 444.5 428.41 443.99 428.197L443.218 430.042ZM453.242 431.999C452.73 431.793 452.147 432.04 451.941 432.553C451.734 433.065 451.982 433.648 452.494 433.854L453.242 431.999ZM461.867 437.564C462.381 437.764 462.961 437.508 463.161 436.993C463.361 436.478 463.105 435.899 462.59 435.699L461.867 437.564ZM472.035 439.294C471.518 439.101 470.942 439.364 470.749 439.881C470.556 440.399 470.819 440.975 471.336 441.168L472.035 439.294ZM480.797 444.626C481.317 444.812 481.889 444.542 482.075 444.022C482.261 443.502 481.991 442.929 481.471 442.743L480.797 444.626ZM490.935 446.062C490.412 445.882 489.843 446.161 489.664 446.683C489.485 447.205 489.763 447.774 490.285 447.953L490.935 446.062ZM499.868 451.172C500.392 451.345 500.957 451.059 501.13 450.534C501.302 450.01 501.017 449.445 500.492 449.272L499.868 451.172ZM510.121 452.365C509.594 452.199 509.032 452.493 508.867 453.019C508.702 453.546 508.995 454.108 509.522 454.273L510.121 452.365ZM519.106 457.212C519.635 457.371 520.193 457.07 520.351 456.541C520.509 456.012 520.209 455.455 519.68 455.296L519.106 457.212ZM529.329 458.117C528.798 457.965 528.245 458.273 528.094 458.804C527.942 459.335 528.25 459.889 528.781 460.04L529.329 458.117ZM538.547 462.754C539.08 462.899 539.629 462.583 539.773 462.05C539.918 461.517 539.603 460.968 539.069 460.824L538.547 462.754ZM548.79 463.387C548.255 463.25 547.71 463.572 547.572 464.107C547.435 464.642 547.757 465.187 548.292 465.324L548.79 463.387ZM558.038 467.758C558.575 467.888 559.115 467.558 559.246 467.022C559.376 466.485 559.046 465.944 558.51 465.814L558.038 467.758ZM568.317 468.126C567.779 468.003 567.242 468.339 567.119 468.878C566.996 469.416 567.333 469.952 567.871 470.075L568.317 468.126ZM577.791 472.276C578.331 472.392 578.863 472.048 578.979 471.508C579.095 470.968 578.751 470.437 578.212 470.321L577.791 472.276ZM587.996 472.357C587.455 472.248 586.927 472.598 586.818 473.14C586.709 473.681 587.06 474.208 587.601 474.317L587.996 472.357ZM597.478 476.239C598.021 476.34 598.544 475.983 598.646 475.44C598.748 474.897 598.39 474.375 597.847 474.273L597.478 476.239ZM607.782 476.071C607.238 475.976 606.72 476.341 606.626 476.885C606.531 477.429 606.895 477.947 607.439 478.041L607.782 476.071ZM617.437 479.717C617.982 479.804 618.496 479.433 618.583 478.888C618.671 478.343 618.3 477.83 617.755 477.742L617.437 479.717ZM627.626 479.265C627.079 479.184 626.571 479.562 626.49 480.108C626.409 480.654 626.787 481.163 627.333 481.243L627.626 479.265ZM637.31 482.652C637.857 482.725 638.361 482.341 638.435 481.794C638.508 481.247 638.124 480.743 637.577 480.669L637.31 482.652ZM647.609 481.954C647.06 481.888 646.562 482.278 646.495 482.826C646.429 483.375 646.819 483.873 647.367 483.94L647.609 481.954ZM657.406 485.095C657.955 485.154 658.448 484.758 658.508 484.209C658.568 483.66 658.171 483.166 657.622 483.106L657.406 485.095ZM667.564 484.123C667.015 484.07 666.526 484.473 666.473 485.023C666.421 485.573 666.824 486.061 667.373 486.114L667.564 484.123ZM677.418 487.014C677.968 487.059 678.452 486.65 678.497 486.1C678.543 485.55 678.134 485.066 677.584 485.02L677.418 487.014ZM687.68 485.797C687.129 485.758 686.651 486.173 686.612 486.724C686.573 487.275 686.988 487.753 687.539 487.792L687.68 485.797ZM697.604 488.44C698.155 488.472 698.628 488.051 698.66 487.499C698.692 486.948 698.271 486.475 697.72 486.443L697.604 488.44ZM707.702 486.962C707.15 486.936 706.682 487.363 706.657 487.915C706.632 488.467 707.059 488.934 707.61 488.96L707.702 486.962ZM717.69 489.36C718.242 489.378 718.704 488.946 718.723 488.394C718.741 487.842 718.309 487.379 717.757 487.361L717.69 489.36ZM727.885 487.639C727.333 487.627 726.876 488.065 726.864 488.618C726.852 489.17 727.291 489.627 727.843 489.639L727.885 487.639ZM738.102 489.801C738.654 489.807 739.107 489.364 739.113 488.812C739.119 488.26 738.677 487.807 738.124 487.801L738.102 489.801ZM748.282 487.874C747.73 487.872 747.28 488.319 747.279 488.871C747.277 489.423 747.723 489.872 748.276 489.874L748.282 487.874ZM758.267 489.865C758.819 489.862 759.264 489.412 759.262 488.86C759.259 488.307 758.809 487.862 758.256 487.865L758.267 489.865ZM768.051 487.774C767.499 487.781 767.057 488.235 767.065 488.787C767.072 489.339 767.526 489.781 768.078 489.774L768.051 487.774ZM778.102 489.593C778.654 489.58 779.092 489.123 779.079 488.571C779.067 488.018 778.609 487.581 778.057 487.593L778.102 489.593ZM788.184 487.317C787.632 487.335 787.199 487.797 787.217 488.349C787.235 488.901 787.696 489.334 788.248 489.317L788.184 487.317ZM798.198 488.95C798.75 488.927 799.178 488.461 799.155 487.91C799.132 487.358 798.666 486.929 798.115 486.952L798.198 488.95ZM807.851 486.498C807.299 486.527 806.875 486.997 806.903 487.549C806.932 488.1 807.402 488.524 807.954 488.496L807.851 486.498ZM818.124 487.917C818.675 487.883 819.094 487.408 819.06 486.857C819.025 486.306 818.551 485.887 817.999 485.921L818.124 487.917ZM828.022 485.241C827.471 485.282 827.058 485.761 827.098 486.312C827.138 486.863 827.618 487.276 828.169 487.236L828.022 485.241ZM838.003 486.459C838.554 486.412 838.962 485.928 838.915 485.378C838.869 484.828 838.385 484.419 837.834 484.466L838.003 486.459ZM847.744 483.567C847.194 483.621 846.791 484.109 846.844 484.659C846.898 485.209 847.386 485.611 847.936 485.558L847.744 483.567ZM858.023 484.52C858.572 484.459 858.968 483.966 858.908 483.417C858.848 482.868 858.354 482.471 857.805 482.531L858.023 484.52ZM867.64 481.392C867.092 481.459 866.702 481.958 866.769 482.506C866.836 483.055 867.335 483.445 867.883 483.378L867.64 481.392ZM877.687 482.113C878.234 482.038 878.618 481.534 878.544 480.987C878.469 480.44 877.965 480.056 877.418 480.131L877.687 482.113ZM887.454 478.695C886.908 478.778 886.532 479.287 886.614 479.833C886.696 480.379 887.206 480.755 887.752 480.673L887.454 478.695ZM897.577 479.124C898.122 479.035 898.491 478.52 898.401 477.975C898.311 477.43 897.796 477.061 897.251 477.151L897.577 479.124ZM906.975 475.472C906.432 475.57 906.07 476.09 906.169 476.633C906.267 477.177 906.787 477.538 907.33 477.44L906.975 475.472ZM917.302 475.56C917.844 475.453 918.197 474.927 918.09 474.385C917.984 473.843 917.458 473.49 916.916 473.597L917.302 475.56ZM926.608 471.609C926.067 471.724 925.723 472.256 925.838 472.796C925.954 473.336 926.485 473.68 927.025 473.565L926.608 471.609ZM936.769 471.399C937.307 471.275 937.642 470.738 937.518 470.2C937.394 469.661 936.857 469.326 936.318 469.45L936.769 471.399ZM946.092 467.102C945.556 467.236 945.23 467.779 945.364 468.315C945.498 468.851 946.04 469.177 946.576 469.043L946.092 467.102ZM956.131 466.571C956.664 466.427 956.98 465.879 956.837 465.346C956.694 464.812 956.146 464.496 955.612 464.639L956.131 466.571ZM965.312 461.942C964.781 462.095 964.475 462.649 964.628 463.18C964.781 463.71 965.335 464.017 965.865 463.864L965.312 461.942ZM975.442 461.009C975.97 460.846 976.266 460.287 976.103 459.759C975.941 459.231 975.381 458.935 974.853 459.098L975.442 461.009ZM984.291 456.091C983.766 456.264 983.481 456.829 983.653 457.353C983.826 457.878 984.391 458.163 984.916 457.991L984.291 456.091ZM994.464 454.746C994.985 454.564 995.259 453.993 995.076 453.472C994.894 452.951 994.323 452.676 993.802 452.859L994.464 454.746ZM1003.06 449.512C1002.54 449.704 1002.28 450.28 1002.47 450.798C1002.67 451.315 1003.24 451.579 1003.76 451.386L1003.06 449.512ZM1013.2 447.765C1013.71 447.563 1013.96 446.982 1013.76 446.468C1013.56 445.954 1012.98 445.702 1012.46 445.905L1013.2 447.765ZM1021.65 442.175C1021.14 442.387 1020.9 442.973 1021.11 443.483C1021.32 443.992 1021.91 444.233 1022.42 444.02L1021.65 442.175ZM1031.64 440.067C1032.15 439.845 1032.38 439.254 1032.15 438.749C1031.93 438.243 1031.34 438.014 1030.84 438.236L1031.64 440.067ZM1039.91 434.14C1039.41 434.371 1039.19 434.966 1039.42 435.467C1039.66 435.968 1040.25 436.187 1040.75 435.955L1039.91 434.14ZM1049.78 431.676C1050.28 431.435 1050.49 430.837 1050.25 430.34C1050 429.843 1049.41 429.635 1048.91 429.876L1049.78 431.676ZM1057.85 425.442C1057.36 425.691 1057.16 426.293 1057.41 426.786C1057.66 427.278 1058.26 427.475 1058.76 427.226L1057.85 425.442ZM1067.62 422.642C1068.11 422.384 1068.29 421.779 1068.03 421.291C1067.78 420.802 1067.17 420.615 1066.68 420.873L1067.62 422.642ZM1075.48 416.141C1075 416.406 1074.82 417.014 1075.09 417.498C1075.35 417.982 1075.96 418.16 1076.44 417.895L1075.48 416.141ZM1085.16 413.042C1085.64 412.77 1085.81 412.159 1085.53 411.679C1085.26 411.198 1084.65 411.029 1084.17 411.301L1085.16 413.042ZM1092.84 406.321C1092.36 406.599 1092.2 407.212 1092.48 407.689C1092.75 408.166 1093.37 408.327 1093.84 408.049L1092.84 406.321ZM1102.43 402.975C1102.91 402.692 1103.06 402.078 1102.78 401.604C1102.49 401.13 1101.88 400.975 1101.41 401.259L1102.43 402.975ZM1109.96 396.089C1109.48 396.377 1109.34 396.993 1109.62 397.464C1109.91 397.935 1110.53 398.084 1111 397.796L1109.96 396.089ZM1119.49 392.561C1119.96 392.27 1120.11 391.653 1119.82 391.184C1119.52 390.715 1118.91 390.571 1118.44 390.862L1119.49 392.561ZM1126.91 385.568C1126.44 385.862 1126.3 386.479 1126.59 386.947C1126.89 387.414 1127.51 387.555 1127.97 387.261L1126.91 385.568ZM1136.41 381.932C1136.88 381.637 1137.02 381.019 1136.72 380.552C1136.43 380.086 1135.81 379.947 1135.34 380.243L1136.41 381.932ZM1143.77 374.891C1143.31 375.187 1143.17 375.805 1143.47 376.271C1143.76 376.738 1144.38 376.875 1144.85 376.579L1143.77 374.891ZM1153.27 371.227C1153.74 370.931 1153.88 370.313 1153.58 369.847C1153.29 369.38 1152.67 369.242 1152.2 369.538L1153.27 371.227ZM1160.64 364.199C1160.17 364.493 1160.03 365.111 1160.33 365.578C1160.62 366.045 1161.24 366.185 1161.71 365.891L1160.64 364.199ZM1170.16 360.586C1170.63 360.294 1170.78 359.677 1170.48 359.209C1170.19 358.74 1169.57 358.597 1169.1 358.889L1170.16 360.586ZM1177.6 353.631C1177.13 353.921 1176.98 354.536 1177.27 355.007C1177.56 355.478 1178.17 355.625 1178.64 355.336L1177.6 353.631ZM1187.17 350.147C1187.64 349.862 1187.79 349.248 1187.51 348.775C1187.22 348.301 1186.61 348.149 1186.14 348.434L1187.17 350.147ZM1194.72 343.324C1194.24 343.604 1194.08 344.217 1194.36 344.693C1194.64 345.169 1195.26 345.328 1195.73 345.048L1194.72 343.324ZM1204.37 340.037C1204.85 339.762 1205.01 339.151 1204.74 338.672C1204.46 338.193 1203.85 338.026 1203.37 338.301L1204.37 340.037ZM1212.07 333.401C1211.59 333.668 1211.41 334.277 1211.68 334.76C1211.95 335.243 1212.56 335.418 1213.04 335.15L1212.07 333.401ZM1221.81 330.368C1222.3 330.107 1222.48 329.501 1222.22 329.014C1221.96 328.528 1221.36 328.344 1220.87 328.605L1221.81 330.368ZM1229.69 323.969C1229.2 324.222 1229.01 324.825 1229.26 325.316C1229.52 325.807 1230.12 326 1230.61 325.747L1229.69 323.969ZM1239.55 321.235C1240.05 320.99 1240.25 320.391 1240.01 319.896C1239.76 319.4 1239.16 319.197 1238.67 319.442L1239.55 321.235ZM1247.62 315.115C1247.12 315.351 1246.91 315.948 1247.14 316.447C1247.38 316.946 1247.97 317.16 1248.47 316.924L1247.62 315.115ZM1257.61 312.709C1258.11 312.482 1258.34 311.89 1258.11 311.386C1257.88 310.883 1257.29 310.658 1256.79 310.885L1257.61 312.709ZM1265.85 306.903C1265.34 307.121 1265.11 307.709 1265.32 308.216C1265.54 308.724 1266.13 308.959 1266.64 308.742L1265.85 306.903ZM1275.9 304.876C1276.41 304.668 1276.66 304.085 1276.45 303.573C1276.24 303.062 1275.66 302.815 1275.15 303.023L1275.9 304.876ZM1284.39 299.37C1283.87 299.568 1283.62 300.146 1283.81 300.662C1284.01 301.177 1284.59 301.435 1285.11 301.236L1284.39 299.37ZM1294.46 297.741C1294.98 297.553 1295.25 296.979 1295.06 296.46C1294.87 295.941 1294.3 295.673 1293.78 295.861L1294.46 297.741ZM1303.23 292.528C1302.71 292.707 1302.43 293.275 1302.61 293.798C1302.79 294.321 1303.36 294.599 1303.88 294.421L1303.23 292.528ZM1313.28 291.304C1313.8 291.135 1314.09 290.572 1313.92 290.046C1313.75 289.52 1313.19 289.231 1312.67 289.4L1313.28 291.304ZM1322.35 286.384C1321.82 286.544 1321.53 287.102 1321.68 287.63C1321.84 288.159 1322.4 288.459 1322.93 288.3L1322.35 286.384ZM1332.36 285.549C1332.89 285.399 1333.2 284.847 1333.05 284.315C1332.9 283.784 1332.35 283.474 1331.82 283.624L1332.36 285.549ZM1341.5 280.985C1340.96 281.126 1340.64 281.673 1340.78 282.207C1340.92 282.741 1341.47 283.06 1342.01 282.919L1341.5 280.985ZM1351.73 280.447C1352.26 280.316 1352.59 279.774 1352.46 279.238C1352.33 278.701 1351.79 278.373 1351.25 278.505L1351.73 280.447ZM1360.87 276.23C1360.33 276.352 1359.99 276.888 1360.12 277.427C1360.24 277.965 1360.77 278.302 1361.31 278.18L1360.87 276.23ZM1371.15 276.021C1371.69 275.906 1372.03 275.376 1371.92 274.835C1371.8 274.295 1371.27 273.95 1370.73 274.064L1371.15 276.021ZM1380.51 272.078C1379.97 272.183 1379.62 272.709 1379.72 273.251C1379.83 273.793 1380.35 274.147 1380.89 274.041L1380.51 272.078ZM1390.61 272.22C1391.15 272.122 1391.51 271.602 1391.41 271.059C1391.32 270.515 1390.8 270.154 1390.25 270.251L1390.61 272.22ZM1400.24 268.531C1399.69 268.621 1399.32 269.135 1399.41 269.68C1399.5 270.225 1400.02 270.594 1400.56 270.504L1400.24 268.531ZM1410.36 268.958C1410.91 268.875 1411.29 268.366 1411.2 267.82C1411.12 267.274 1410.61 266.898 1410.06 266.98L1410.36 268.958ZM1419.87 265.568C1419.32 265.643 1418.94 266.148 1419.01 266.695C1419.09 267.242 1419.59 267.625 1420.14 267.55L1419.87 265.568ZM1430.14 266.242C1430.69 266.174 1431.08 265.675 1431.01 265.127C1430.95 264.579 1430.45 264.189 1429.9 264.258L1430.14 266.242ZM1439.84 263.086C1439.29 263.147 1438.9 263.642 1438.96 264.19C1439.02 264.739 1439.52 265.135 1440.06 265.073L1439.84 263.086ZM1449.84 264.04C1450.39 263.985 1450.79 263.495 1450.74 262.946C1450.68 262.396 1450.19 261.995 1449.64 262.05L1449.84 264.04ZM1459.66 261.108C1459.11 261.157 1458.7 261.642 1458.75 262.193C1458.8 262.743 1459.28 263.149 1459.83 263.101L1459.66 261.108ZM1469.97 262.263C1470.52 262.221 1470.93 261.74 1470.89 261.19C1470.85 260.639 1470.37 260.227 1469.81 260.269L1469.97 262.263ZM1479.56 259.569C1479.01 259.606 1478.59 260.083 1478.63 260.634C1478.66 261.185 1479.14 261.602 1479.69 261.565L1479.56 259.569ZM1489.61 260.954C1490.16 260.922 1490.58 260.45 1490.55 259.899C1490.52 259.347 1490.05 258.926 1489.5 258.957L1489.61 260.954ZM1499.64 258.433C1499.09 258.459 1498.66 258.927 1498.69 259.479C1498.71 260.031 1499.18 260.457 1499.73 260.431L1499.64 258.433ZM1509.82 260.035C1510.37 260.021 1510.81 259.562 1510.79 259.01C1510.78 258.457 1510.32 258.022 1509.77 258.036L1509.82 260.035ZM1519.69 257.93C1519.14 257.927 1518.69 258.373 1518.69 258.925C1518.68 259.477 1519.13 259.927 1519.68 259.93L1519.69 257.93ZM1529.53 260.127C1530.08 260.147 1530.55 259.715 1530.56 259.163C1530.58 258.611 1530.15 258.148 1529.6 258.128L1529.53 260.127ZM1539.52 258.631C1538.97 258.595 1538.49 259.012 1538.45 259.563C1538.42 260.114 1538.84 260.59 1539.39 260.627L1539.52 258.631ZM1549.2 261.423C1549.75 261.475 1550.24 261.073 1550.29 260.523C1550.35 259.973 1549.94 259.484 1549.4 259.432L1549.2 261.423ZM1559.27 260.53C1558.72 260.46 1558.22 260.848 1558.15 261.396C1558.08 261.944 1558.47 262.445 1559.01 262.514L1559.27 260.53ZM1568.77 263.891C1569.31 263.977 1569.83 263.603 1569.91 263.058C1570 262.512 1569.62 262.001 1569.08 261.915L1568.77 263.891ZM1578.86 263.589C1578.32 263.488 1577.8 263.847 1577.7 264.39C1577.6 264.933 1577.96 265.455 1578.5 265.556L1578.86 263.589ZM1588.16 267.495C1588.7 267.611 1589.23 267.268 1589.35 266.728C1589.47 266.188 1589.12 265.656 1588.58 265.54L1588.16 267.495ZM1598.25 267.766C1597.72 267.634 1597.18 267.963 1597.05 268.499C1596.91 269.036 1597.24 269.577 1597.78 269.708L1598.25 267.766ZM1607.32 272.185C1607.86 272.331 1608.41 272.018 1608.55 271.485C1608.7 270.953 1608.39 270.403 1607.85 270.256L1607.32 272.185ZM1617.38 273.008C1616.86 272.848 1616.3 273.147 1616.14 273.675C1615.98 274.204 1616.27 274.762 1616.8 274.922L1617.38 273.008ZM1626.2 277.911C1626.73 278.085 1627.29 277.801 1627.47 277.277C1627.64 276.753 1627.36 276.187 1626.84 276.013L1626.2 277.911ZM1636.21 279.263C1635.69 279.076 1635.11 279.345 1634.92 279.864C1634.74 280.383 1635.01 280.957 1635.53 281.144L1636.21 279.263ZM1644.76 284.617C1645.28 284.817 1645.86 284.563 1646.06 284.049C1646.26 283.534 1646 282.954 1645.49 282.753L1644.76 284.617ZM1654.68 286.476C1654.17 286.262 1653.58 286.502 1653.37 287.011C1653.16 287.52 1653.4 288.106 1653.91 288.32L1654.68 286.476ZM1662.96 292.248C1663.46 292.474 1664.05 292.249 1664.28 291.745C1664.51 291.241 1664.28 290.65 1663.78 290.424L1662.96 292.248ZM1672.78 294.59C1672.28 294.352 1671.68 294.563 1671.44 295.061C1671.2 295.56 1671.41 296.157 1671.91 296.395L1672.78 294.59ZM1680.77 300.753C1681.26 301.003 1681.86 300.806 1682.11 300.313C1682.36 299.82 1682.16 299.219 1681.67 298.969L1680.77 300.753ZM1690.46 303.553C1689.98 303.292 1689.37 303.475 1689.11 303.962C1688.85 304.449 1689.03 305.055 1689.52 305.316L1690.46 303.553ZM1698.16 310.079C1698.64 310.351 1699.25 310.181 1699.53 309.701C1699.8 309.22 1699.63 308.61 1699.15 308.338L1698.16 310.079ZM1707.72 313.315C1707.25 313.033 1706.63 313.188 1706.35 313.663C1706.07 314.137 1706.22 314.751 1706.7 315.034L1707.72 313.315ZM1715.13 320.178C1715.59 320.471 1716.21 320.328 1716.5 319.86C1716.8 319.392 1716.65 318.775 1716.19 318.482L1715.13 320.178ZM1724.53 323.828C1724.07 323.525 1723.45 323.654 1723.15 324.116C1722.84 324.578 1722.97 325.198 1723.43 325.501L1724.53 323.828ZM1731.63 331.005C1732.09 331.318 1732.71 331.202 1733.02 330.747C1733.34 330.291 1733.22 329.669 1732.77 329.356L1731.63 331.005ZM1740.87 335.049C1740.42 334.727 1739.8 334.83 1739.48 335.278C1739.16 335.727 1739.26 336.352 1739.71 336.674L1740.87 335.049ZM1747.67 342.519C1748.11 342.851 1748.74 342.761 1749.07 342.319C1749.4 341.877 1749.31 341.25 1748.87 340.919L1747.67 342.519ZM1756.74 346.942C1756.3 346.601 1755.67 346.678 1755.33 347.113C1754.99 347.548 1755.07 348.177 1755.5 348.517L1756.74 346.942ZM1763.22 354.684C1763.65 355.033 1764.28 354.969 1764.63 354.541C1764.98 354.113 1764.92 353.483 1764.49 353.134L1763.22 354.684ZM1772.1 359.469C1771.68 359.111 1771.05 359.163 1770.69 359.584C1770.33 360.005 1770.39 360.636 1770.81 360.993L1772.1 359.469ZM1778.28 367.466C1778.69 367.831 1779.32 367.793 1779.69 367.379C1780.05 366.965 1780.01 366.333 1779.6 365.967L1778.28 367.466ZM1786.96 372.6C1786.55 372.226 1785.92 372.253 1785.54 372.659C1785.17 373.066 1785.19 373.698 1785.6 374.072L1786.96 372.6ZM1792.81 380.835C1793.21 381.217 1793.84 381.203 1794.22 380.804C1794.6 380.405 1794.59 379.772 1794.19 379.39L1792.81 380.835ZM1801.28 386.308C1800.89 385.919 1800.25 385.92 1799.86 386.311C1799.47 386.703 1799.48 387.336 1799.87 387.726L1801.28 386.308ZM1806.8 394.766C1807.19 395.163 1807.82 395.175 1808.22 394.791C1808.61 394.407 1808.62 393.774 1808.24 393.377L1806.8 394.766ZM1815.05 400.569C1814.68 400.165 1814.04 400.141 1813.64 400.517C1813.23 400.893 1813.21 401.525 1813.59 401.93L1815.05 400.569ZM1820.24 409.238C1820.6 409.65 1821.24 409.686 1821.65 409.318C1822.06 408.95 1822.1 408.318 1821.73 407.906L1820.24 409.238ZM1828.25 415.363C1827.89 414.944 1827.26 414.895 1826.84 415.255C1826.42 415.614 1826.37 416.245 1826.73 416.665L1828.25 415.363ZM1833.09 424.231C1833.44 424.657 1834.07 424.718 1834.49 424.367C1834.92 424.017 1834.98 423.386 1834.63 422.96L1833.09 424.231ZM1840.85 430.673C1840.5 430.239 1839.88 430.165 1839.44 430.508C1839.01 430.85 1838.93 431.479 1839.28 431.912L1840.85 430.673ZM1845.32 439.73C1845.65 440.17 1846.28 440.257 1846.72 439.924C1847.16 439.591 1847.25 438.964 1846.91 438.523L1845.32 439.73ZM1852.81 446.484C1852.48 446.037 1851.86 445.937 1851.41 446.261C1850.96 446.585 1850.86 447.21 1851.19 447.657L1852.81 446.484ZM1856.9 455.723C1857.21 456.177 1857.84 456.29 1858.29 455.976C1858.75 455.662 1858.86 455.039 1858.54 454.585L1856.9 455.723ZM1864.09 462.785C1863.79 462.324 1863.17 462.197 1862.71 462.502C1862.24 462.806 1862.12 463.426 1862.42 463.887L1864.09 462.785ZM1867.78 472.199C1868.08 472.667 1868.69 472.807 1869.16 472.513C1869.63 472.219 1869.77 471.602 1869.47 471.134L1867.78 472.199ZM1874.64 479.565C1874.36 479.091 1873.75 478.936 1873.27 479.22C1872.8 479.503 1872.64 480.117 1872.93 480.591L1874.64 479.565ZM1877.9 489.149C1878.18 489.63 1878.79 489.799 1879.27 489.527C1879.75 489.255 1879.92 488.645 1879.65 488.164L1877.9 489.149ZM1884.4 496.815C1884.14 496.328 1883.54 496.144 1883.05 496.404C1882.56 496.664 1882.38 497.27 1882.64 497.757L1884.4 496.815ZM1887.2 506.563C1887.44 507.057 1888.04 507.256 1888.54 507.009C1889.03 506.761 1889.23 506.16 1888.98 505.666L1887.2 506.563ZM1893.29 514.552C1893.06 514.052 1892.46 513.837 1891.96 514.071C1891.46 514.306 1891.25 514.901 1891.48 515.401L1893.29 514.552ZM1895.56 524.428C1895.78 524.935 1896.37 525.167 1896.88 524.946C1897.38 524.726 1897.62 524.137 1897.4 523.63L1895.56 524.428ZM1901.21 532.771C1901.01 532.258 1900.43 532.009 1899.91 532.214C1899.4 532.42 1899.15 533.002 1899.36 533.515L1901.21 532.771ZM1902.88 542.725C1903.07 543.244 1903.65 543.511 1904.17 543.321C1904.68 543.132 1904.95 542.558 1904.76 542.039L1902.88 542.725ZM1908.02 551.436C1907.85 550.912 1907.28 550.626 1906.76 550.798C1906.23 550.97 1905.95 551.535 1906.12 552.06L1908.02 551.436ZM1909.01 561.421C1909.16 561.951 1909.72 562.257 1910.25 562.103C1910.78 561.949 1911.08 561.395 1910.93 560.864L1909.01 561.421ZM1913.53 570.513C1913.4 569.977 1912.85 569.65 1912.32 569.784C1911.78 569.917 1911.45 570.46 1911.59 570.996L1913.53 570.513ZM1913.77 580.587C1913.88 581.128 1914.41 581.476 1914.95 581.365C1915.49 581.254 1915.84 580.725 1915.73 580.184L1913.77 580.587ZM1917.52 589.935C1917.43 589.39 1916.92 589.018 1916.37 589.106C1915.83 589.193 1915.45 589.706 1915.54 590.252L1917.52 589.935ZM1916.87 600.045C1916.94 600.594 1917.43 600.99 1917.98 600.929C1918.53 600.867 1918.92 600.373 1918.86 599.824L1916.87 600.045ZM1919.7 609.712C1919.67 609.161 1919.2 608.74 1918.65 608.772C1918.1 608.804 1917.67 609.278 1917.71 609.829L1919.7 609.712ZM1918 619.632C1918 620.184 1918.45 620.631 1919 620.631C1919.55 620.631 1920 620.183 1920 619.63L1918 619.632ZM1919.69 629.619C1919.73 629.068 1919.31 628.593 1918.76 628.558C1918.21 628.523 1917.73 628.942 1917.7 629.493L1919.69 629.619ZM1.2756e-05 0.808036C0.645491 2.26979 1.31069 3.75486 1.99564 5.26259L3.81663 4.43533C3.13454 2.93391 2.47223 1.45528 1.82966 0.000105266L1.2756e-05 0.808036ZM6.33061 14.5508C7.72229 17.4577 9.17975 20.4356 10.7032 23.4805L12.4919 22.5856C10.9735 19.5508 9.52118 16.5833 8.13462 13.6871L6.33061 14.5508ZM15.3112 32.5049C16.8339 35.4289 18.4128 38.4067 20.0482 41.4351L21.8081 40.4848C20.1774 37.4651 18.6032 34.4961 17.0852 31.5811L15.3112 32.5049ZM24.8848 50.2422C26.5082 53.1502 28.1808 56.0997 29.9025 59.0881L31.6355 58.0896C29.9183 55.109 28.2502 52.1674 26.6311 49.2672L24.8848 50.2422ZM34.9549 67.7289C36.6598 70.6028 38.4082 73.509 40.2002 76.4453L41.9075 75.4034C40.1198 72.4742 38.3757 69.5752 36.675 66.7084L34.9549 67.7289ZM45.4678 84.9613C47.2415 87.7911 49.0543 90.646 50.9063 93.5245L52.5883 92.4423C50.7406 89.5705 48.9321 86.7221 47.1625 83.899L45.4678 84.9613ZM56.3924 101.945C58.2266 104.725 60.0962 107.525 62.0014 110.343L63.6584 109.223C61.7574 106.411 59.892 103.617 58.062 100.843L56.3924 101.945ZM67.7098 118.686C69.5987 121.414 71.5202 124.157 73.4744 126.914L75.1062 125.757C73.1562 123.006 71.2389 120.269 69.3542 117.547L67.7098 118.686ZM79.4077 135.188C81.3476 137.862 83.3177 140.548 85.3181 143.244L86.9244 142.053C84.9283 139.362 82.9624 136.682 81.0267 134.014L79.4077 135.188ZM91.4101 151.364C93.4204 154.013 95.4594 156.671 97.5274 159.337L99.1078 158.111C97.0442 155.451 95.0094 152.798 93.0035 150.155L91.4101 151.364ZM103.747 167.268C105.836 169.902 107.953 172.544 110.098 175.19L111.652 173.931C109.511 171.29 107.399 168.654 105.314 166.025L103.747 167.268ZM116.443 182.935C118.585 185.521 120.753 188.112 122.948 190.705L124.474 189.413C122.284 186.825 120.121 184.24 117.984 181.659L116.443 182.935ZM129.496 198.361C131.678 200.884 133.884 203.409 136.116 205.936L137.615 204.612C135.388 202.09 133.186 199.57 131.009 197.053L129.496 198.361ZM142.888 213.519C145.114 215.986 147.365 218.453 149.64 220.919L151.11 219.563C148.84 217.102 146.594 214.64 144.372 212.179L142.888 213.519ZM156.52 228.301C158.828 230.75 161.16 233.198 163.516 235.644L164.956 234.257C162.606 231.816 160.279 229.373 157.976 226.929L156.52 228.301ZM170.507 242.828C172.861 245.22 175.237 247.609 177.636 249.995L179.047 248.577C176.653 246.196 174.281 243.812 171.933 241.425L170.507 242.828ZM184.845 257.085C187.235 259.41 189.647 261.732 192.081 264.048L193.46 262.599C191.031 260.288 188.624 257.972 186.239 255.651L184.845 257.085ZM199.449 270.984C201.902 273.267 204.378 275.546 206.874 277.819L208.221 276.34C205.729 274.072 203.26 271.798 200.812 269.52L199.449 270.984ZM214.346 284.544C216.858 286.78 219.391 289.009 221.945 291.231L223.258 289.722C220.709 287.505 218.182 285.281 215.676 283.05L214.346 284.544ZM229.59 297.807C232.136 299.972 234.703 302.129 237.29 304.279L238.568 302.74C235.987 300.596 233.426 298.443 230.886 296.283L229.59 297.807ZM245.112 310.702C247.714 312.813 250.337 314.917 252.979 317.011L254.221 315.443C251.585 313.354 248.969 311.256 246.372 309.149L245.112 310.702ZM260.898 323.212C263.558 325.27 266.237 327.319 268.937 329.357L270.142 327.761C267.449 325.727 264.776 323.683 262.122 321.63L260.898 323.212ZM277.025 335.39C279.716 337.372 282.427 339.345 285.157 341.306L286.324 339.682C283.6 337.725 280.896 335.757 278.211 333.779L277.025 335.39ZM293.403 347.157C296.154 349.084 298.924 351 301.713 352.904L302.84 351.252C300.058 349.353 297.295 347.442 294.551 345.519L293.403 347.157ZM310.048 358.52C312.845 360.381 315.66 362.229 318.495 364.064L319.582 362.385C316.754 360.554 313.945 358.711 311.155 356.855L310.048 358.52ZM327.023 369.513C329.848 371.293 332.691 373.061 335.552 374.815L336.598 373.11C333.743 371.36 330.907 369.597 328.089 367.821L327.023 369.513ZM344.19 380.038C347.087 381.765 350.002 383.478 352.936 385.177L353.938 383.447C351.012 381.752 348.104 380.043 345.214 378.32L344.19 380.038ZM361.648 390.151C364.569 391.795 367.509 393.424 370.466 395.039L371.424 393.284C368.475 391.673 365.543 390.048 362.629 388.408L361.648 390.151ZM379.389 399.839C382.346 401.404 385.319 402.955 388.31 404.491L389.223 402.711C386.24 401.18 383.274 399.633 380.326 398.071L379.389 399.839ZM397.295 409.032C400.307 410.53 403.337 412.012 406.384 413.479L407.251 411.676C404.212 410.214 401.19 408.735 398.186 407.241L397.295 409.032ZM415.51 417.798C418.539 419.209 421.586 420.603 424.649 421.98L425.469 420.156C422.414 418.782 419.376 417.392 416.354 415.985L415.51 417.798ZM433.887 426.063C436.981 427.407 440.091 428.733 443.218 430.042L443.99 428.197C440.872 426.891 437.769 425.569 434.684 424.229L433.887 426.063ZM452.494 433.854C455.602 435.108 458.726 436.345 461.867 437.564L462.59 435.699C459.458 434.483 456.342 433.25 453.242 431.999L452.494 433.854ZM471.336 441.168C474.474 442.338 477.627 443.491 480.797 444.626L481.471 442.743C478.31 441.611 475.165 440.461 472.035 439.294L471.336 441.168ZM490.285 447.953C493.464 449.045 496.658 450.118 499.868 451.172L500.492 449.272C497.29 448.22 494.105 447.15 490.935 446.062L490.285 447.953ZM509.522 454.273C512.701 455.271 515.896 456.251 519.106 457.212L519.68 455.296C516.478 454.337 513.292 453.36 510.121 452.365L509.522 454.273ZM528.781 460.04C532.021 460.964 535.276 461.869 538.547 462.754L539.069 460.824C535.808 459.94 532.561 459.038 529.329 458.117L528.781 460.04ZM548.292 465.324C551.526 466.154 554.775 466.966 558.038 467.758L558.51 465.814C555.255 465.024 552.015 464.215 548.79 463.387L548.292 465.324ZM567.871 470.075C571.163 470.829 574.47 471.562 577.791 472.276L578.212 470.321C574.899 469.609 571.601 468.877 568.317 468.126L567.871 470.075ZM587.601 474.317C590.88 474.977 594.172 475.618 597.478 476.239L597.847 474.273C594.55 473.654 591.266 473.015 587.996 472.357L587.601 474.317ZM607.439 478.041C610.758 478.62 614.09 479.178 617.437 479.717L617.755 477.742C614.417 477.205 611.093 476.648 607.782 476.071L607.439 478.041ZM627.333 481.243C630.646 481.733 633.971 482.202 637.31 482.652L637.577 480.669C634.246 480.221 630.929 479.753 627.626 479.265L627.333 481.243ZM647.367 483.94C650.7 484.345 654.046 484.73 657.406 485.095L657.622 483.106C654.271 482.742 650.933 482.358 647.609 481.954L647.367 483.94ZM667.373 486.114C670.709 486.434 674.057 486.734 677.418 487.014L677.584 485.02C674.231 484.741 670.891 484.442 667.564 484.123L667.373 486.114ZM687.539 487.792C690.882 488.028 694.236 488.244 697.604 488.44L697.72 486.443C694.361 486.248 691.014 486.032 687.68 485.797L687.539 487.792ZM707.61 488.96C710.958 489.113 714.318 489.247 717.69 489.36L717.757 487.361C714.393 487.248 711.041 487.115 707.702 486.962L707.61 488.96ZM727.843 489.639C729.541 489.675 731.242 489.706 732.946 489.732L732.976 487.732C731.276 487.706 729.579 487.675 727.885 487.639L727.843 489.639ZM732.946 489.732C734.672 489.758 736.391 489.781 738.102 489.801L738.124 487.801C736.416 487.781 734.7 487.759 732.976 487.732L732.946 489.732ZM748.276 489.874C751.636 489.885 754.966 489.882 758.267 489.865L758.256 487.865C754.962 487.882 751.637 487.885 748.282 487.874L748.276 489.874ZM768.078 489.774C771.451 489.728 774.792 489.668 778.102 489.593L778.057 487.593C774.753 487.668 771.418 487.728 768.051 487.774L768.078 489.774ZM788.248 489.317C791.597 489.209 794.914 489.087 798.198 488.95L798.115 486.952C794.837 487.089 791.527 487.211 788.184 487.317L788.248 489.317ZM807.954 488.496C811.379 488.319 814.769 488.126 818.124 487.917L817.999 485.921C814.652 486.13 811.269 486.322 807.851 486.498L807.954 488.496ZM828.169 487.236C831.482 486.993 834.76 486.734 838.003 486.459L837.834 484.466C834.598 484.74 831.328 484.999 828.022 485.241L828.169 487.236ZM847.936 485.558C851.336 485.229 854.698 484.883 858.023 484.52L857.805 482.531C854.489 482.894 851.136 483.239 847.744 483.567L847.936 485.558ZM867.883 483.378C871.189 482.973 874.457 482.551 877.687 482.113L877.418 480.131C874.196 480.568 870.937 480.989 867.64 481.392L867.883 483.378ZM887.752 480.673C891.066 480.175 894.341 479.659 897.577 479.124L897.251 477.151C894.025 477.684 890.76 478.199 887.454 478.695L887.752 480.673ZM907.33 477.44C910.697 476.833 914.02 476.206 917.302 475.56L916.916 473.597C913.644 474.241 910.331 474.866 906.975 475.472L907.33 477.44ZM927.025 473.565C930.315 472.862 933.562 472.14 936.769 471.399L936.318 469.45C933.123 470.189 929.887 470.909 926.608 471.609L927.025 473.565ZM946.576 469.043C949.803 468.238 952.987 467.414 956.131 466.571L955.612 464.639C952.48 465.479 949.307 466.3 946.092 467.102L946.576 469.043ZM965.865 463.864C969.101 462.932 972.292 461.98 975.442 461.009L974.853 459.098C971.715 460.065 968.535 461.014 965.312 461.942L965.865 463.864ZM984.916 457.991C988.142 456.929 991.324 455.847 994.464 454.746L993.802 452.859C990.674 453.956 987.504 455.033 984.291 456.091L984.916 457.991ZM1003.76 451.386C1006.95 450.199 1010.09 448.991 1013.2 447.765L1012.46 445.905C1009.37 447.126 1006.24 448.329 1003.06 449.512L1003.76 451.386ZM1022.42 444.02C1025.53 442.721 1028.61 441.403 1031.64 440.067L1030.84 438.236C1027.81 439.567 1024.75 440.88 1021.65 442.175L1022.42 444.02ZM1040.75 435.955C1043.8 434.545 1046.81 433.119 1049.78 431.676L1048.91 429.876C1045.94 431.314 1042.95 432.735 1039.91 434.14L1040.75 435.955ZM1058.76 427.226C1061.74 425.713 1064.69 424.184 1067.62 422.642L1066.68 420.873C1063.77 422.41 1060.83 423.934 1057.85 425.442L1058.76 427.226ZM1076.44 417.895C1079.38 416.29 1082.28 414.671 1085.16 413.042L1084.17 411.301C1081.3 412.926 1078.41 414.54 1075.48 416.141L1076.44 417.895ZM1093.84 408.049C1096.73 406.367 1099.59 404.676 1102.43 402.975L1101.41 401.259C1098.57 402.956 1095.71 404.644 1092.84 406.321L1093.84 408.049ZM1111 397.796C1113.84 396.058 1116.67 394.312 1119.49 392.561L1118.44 390.862C1115.62 392.611 1112.8 394.354 1109.96 396.089L1111 397.796ZM1127.97 387.261C1130.79 385.488 1133.61 383.711 1136.41 381.932L1135.34 380.243C1132.54 382.021 1129.73 383.796 1126.91 385.568L1127.97 387.261ZM1144.85 376.579C1147.65 374.795 1150.46 373.01 1153.27 371.227L1152.2 369.538C1149.39 371.322 1146.58 373.107 1143.77 374.891L1144.85 376.579ZM1161.71 365.891C1164.52 364.119 1167.34 362.35 1170.16 360.586L1169.1 358.889C1166.27 360.655 1163.45 362.426 1160.64 364.199L1161.71 365.891ZM1178.64 355.336C1181.47 353.6 1184.31 351.869 1187.17 350.147L1186.14 348.434C1183.27 350.16 1180.43 351.893 1177.6 353.631L1178.64 355.336ZM1195.73 345.048C1198.59 343.368 1201.46 341.697 1204.37 340.037L1203.37 338.301C1200.46 339.965 1197.58 341.64 1194.72 343.324L1195.73 345.048ZM1213.04 335.15C1215.94 333.544 1218.86 331.949 1221.81 330.368L1220.87 328.605C1217.91 330.191 1214.97 331.79 1212.07 333.401L1213.04 335.15ZM1230.61 325.747C1233.56 324.229 1236.54 322.724 1239.55 321.235L1238.67 319.442C1235.64 320.936 1232.65 322.446 1229.69 323.969L1230.61 325.747ZM1248.47 316.924C1251.48 315.503 1254.52 314.097 1257.61 312.709L1256.79 310.885C1253.69 312.279 1250.64 313.689 1247.62 315.115L1248.47 316.924ZM1266.64 308.742C1269.69 307.436 1272.77 306.147 1275.9 304.876L1275.15 303.023C1272.01 304.299 1268.91 305.593 1265.85 306.903L1266.64 308.742ZM1285.11 301.236C1288.18 300.053 1291.3 298.888 1294.46 297.741L1293.78 295.861C1290.61 297.012 1287.48 298.182 1284.39 299.37L1285.11 301.236ZM1303.88 294.421C1306.97 293.364 1310.1 292.325 1313.28 291.304L1312.67 289.4C1309.48 290.425 1306.34 291.467 1303.23 292.528L1303.88 294.421ZM1322.93 288.3C1326.03 287.365 1329.18 286.448 1332.36 285.549L1331.82 283.624C1328.62 284.526 1325.47 285.446 1322.35 286.384L1322.93 288.3ZM1342.01 282.919C1345.2 282.077 1348.44 281.252 1351.73 280.447L1351.25 278.505C1347.96 279.313 1344.71 280.14 1341.5 280.985L1342.01 282.919ZM1361.31 278.18C1364.55 277.442 1367.83 276.722 1371.15 276.021L1370.73 274.064C1367.4 274.767 1364.11 275.489 1360.87 276.23L1361.31 278.18ZM1380.89 274.041C1384.09 273.417 1387.33 272.809 1390.61 272.22L1390.25 270.251C1386.97 270.843 1383.72 271.452 1380.51 272.078L1380.89 274.041ZM1400.56 270.504C1403.79 269.972 1407.06 269.456 1410.36 268.958L1410.06 266.98C1406.75 267.48 1403.47 267.997 1400.24 268.531L1400.56 270.504ZM1420.14 267.55C1423.44 267.097 1426.77 266.661 1430.14 266.242L1429.9 264.258C1426.52 264.677 1423.17 265.114 1419.87 265.568L1420.14 267.55ZM1440.06 265.073C1443.29 264.713 1446.55 264.369 1449.84 264.04L1449.64 262.05C1446.34 262.379 1443.07 262.725 1439.84 263.086L1440.06 265.073ZM1459.83 263.101C1463.18 262.806 1466.55 262.527 1469.97 262.263L1469.81 260.269C1466.39 260.533 1463.01 260.813 1459.66 261.108L1459.83 263.101ZM1479.69 261.565C1482.96 261.347 1486.27 261.143 1489.61 260.954L1489.5 258.957C1486.15 259.146 1482.84 259.351 1479.56 259.569L1479.69 261.565ZM1499.73 260.431C1501.44 260.352 1503.15 260.276 1504.87 260.204L1504.79 258.206C1503.06 258.278 1501.35 258.354 1499.64 258.433L1499.73 260.431ZM1504.87 260.204C1506.52 260.135 1508.17 260.079 1509.82 260.035L1509.77 258.036C1508.11 258.08 1506.45 258.136 1504.79 258.206L1504.87 260.204ZM1519.68 259.93C1522.97 259.945 1526.26 260.011 1529.53 260.127L1529.6 258.128C1526.31 258.012 1523 257.945 1519.69 257.93L1519.68 259.93ZM1539.39 260.627C1542.67 260.843 1545.94 261.109 1549.2 261.423L1549.4 259.432C1546.11 259.116 1542.82 258.849 1539.52 258.631L1539.39 260.627ZM1559.01 262.514C1562.28 262.926 1565.53 263.385 1568.77 263.891L1569.08 261.915C1565.82 261.406 1562.55 260.944 1559.27 260.53L1559.01 262.514ZM1578.5 265.556C1581.73 266.157 1584.95 266.803 1588.16 267.495L1588.58 265.54C1585.36 264.844 1582.12 264.194 1578.86 263.589L1578.5 265.556ZM1597.78 269.708C1600.97 270.491 1604.16 271.317 1607.32 272.185L1607.85 270.256C1604.67 269.383 1601.47 268.552 1598.25 267.766L1597.78 269.708ZM1616.8 274.922C1619.95 275.877 1623.08 276.874 1626.2 277.911L1626.84 276.013C1623.7 274.97 1620.55 273.968 1617.38 273.008L1616.8 274.922ZM1635.53 281.144C1638.62 282.263 1641.7 283.42 1644.76 284.617L1645.49 282.753C1642.41 281.551 1639.31 280.387 1636.21 279.263L1635.53 281.144ZM1653.91 288.32C1656.94 289.593 1659.96 290.902 1662.96 292.248L1663.78 290.424C1660.76 289.071 1657.73 287.755 1654.68 286.476L1653.91 288.32ZM1671.91 296.395C1674.88 297.813 1677.83 299.266 1680.77 300.753L1681.67 298.969C1678.72 297.475 1675.76 296.015 1672.78 294.59L1671.91 296.395ZM1689.52 305.316C1692.42 306.871 1695.3 308.459 1698.16 310.079L1699.15 308.338C1696.27 306.711 1693.38 305.116 1690.46 303.553L1689.52 305.316ZM1706.7 315.034C1709.53 316.718 1712.34 318.433 1715.13 320.178L1716.19 318.482C1713.38 316.73 1710.56 315.007 1707.72 313.315L1706.7 315.034ZM1723.43 325.501C1726.19 327.307 1728.92 329.142 1731.63 331.005L1732.77 329.356C1730.04 327.486 1727.3 325.643 1724.53 323.828L1723.43 325.501ZM1739.71 336.674C1742.38 338.596 1745.04 340.545 1747.67 342.519L1748.87 340.919C1746.23 338.937 1743.56 336.98 1740.87 335.049L1739.71 336.674ZM1755.5 348.517C1758.1 350.549 1760.67 352.605 1763.22 354.684L1764.49 353.134C1761.93 351.046 1759.34 348.982 1756.74 346.942L1755.5 348.517ZM1770.81 360.993C1773.32 363.129 1775.81 365.287 1778.28 367.466L1779.6 365.967C1777.13 363.78 1774.63 361.613 1772.1 359.469L1770.81 360.993ZM1785.6 374.072C1788.03 376.307 1790.43 378.561 1792.81 380.835L1794.19 379.39C1791.81 377.107 1789.39 374.844 1786.96 372.6L1785.6 374.072ZM1799.87 387.726C1802.21 390.055 1804.52 392.402 1806.8 394.766L1808.24 393.377C1805.95 391.003 1803.63 388.647 1801.28 386.308L1799.87 387.726ZM1813.59 401.93C1815.83 404.35 1818.05 406.787 1820.24 409.238L1821.73 407.906C1819.53 405.445 1817.31 402.999 1815.05 400.569L1813.59 401.93ZM1826.73 416.665C1828.88 419.173 1831 421.696 1833.09 424.231L1834.63 422.96C1832.54 420.415 1830.41 417.882 1828.25 415.363L1826.73 416.665ZM1839.28 431.912C1841.33 434.507 1843.34 437.114 1845.32 439.73L1846.91 438.523C1844.93 435.896 1842.9 433.279 1840.85 430.673L1839.28 431.912ZM1851.19 447.657C1853.13 450.337 1855.03 453.026 1856.9 455.723L1858.54 454.585C1856.67 451.876 1854.76 449.176 1852.81 446.484L1851.19 447.657ZM1862.42 463.887C1864.25 466.652 1866.04 469.423 1867.78 472.199L1869.47 471.134C1867.72 468.346 1865.93 465.562 1864.09 462.785L1862.42 463.887ZM1872.93 480.591C1874.63 483.441 1876.29 486.294 1877.9 489.149L1879.65 488.164C1878.02 485.295 1876.35 482.428 1874.64 479.565L1872.93 480.591ZM1882.64 497.757C1884.2 500.693 1885.72 503.629 1887.2 506.563L1888.98 505.666C1887.5 502.717 1885.98 499.766 1884.4 496.815L1882.64 497.757ZM1891.48 515.401C1892.9 518.415 1894.26 521.424 1895.56 524.428L1897.4 523.63C1896.08 520.609 1894.71 517.582 1893.29 514.552L1891.48 515.401ZM1899.36 533.515C1900.59 536.594 1901.77 539.664 1902.88 542.725L1904.76 542.039C1903.64 538.959 1902.46 535.869 1901.21 532.771L1899.36 533.515ZM1906.12 552.06C1907.15 555.194 1908.11 558.315 1909.01 561.421L1910.93 560.864C1910.02 557.736 1909.05 554.593 1908.02 551.436L1906.12 552.06ZM1911.59 570.996C1912.39 574.214 1913.12 577.412 1913.77 580.587L1915.73 580.184C1915.07 576.981 1914.34 573.756 1913.53 570.513L1911.59 570.996ZM1915.54 590.252C1916.07 593.545 1916.51 596.811 1916.87 600.045L1918.86 599.824C1918.5 596.557 1918.05 593.259 1917.52 589.935L1915.54 590.252ZM1917.71 609.829C1917.9 613.135 1918 616.404 1918 619.632L1920 619.63C1920 616.363 1919.9 613.056 1919.7 609.712L1917.71 609.829ZM1917.7 629.493C1917.59 631.119 1917.47 632.734 1917.31 634.336L1919.3 634.529C1919.46 632.904 1919.59 631.267 1919.69 629.619L1917.7 629.493Z" fill="#04102A"/>
</svg>
